<?xml version="1.0" standalone="no"?>
<!DOCTYPE svg PUBLIC "-//W3C//DTD SVG 20010904//EN"
 "http://www.w3.org/TR/2001/REC-SVG-20010904/DTD/svg10.dtd">
<svg version="1.0" xmlns="http://www.w3.org/2000/svg"
 width="1030.000000pt" height="1030.000000pt" viewBox="0 0 1030.000000 1030.000000"
 preserveAspectRatio="xMidYMid meet">
<metadata>
Created by potrace 1.11, written by Peter Selinger 2001-2013
</metadata>
<g transform="translate(0.000000,1030.000000) scale(0.100000,-0.100000)"
fill="#000000" stroke="none">
<path d="M5015 10261 c-22 -4 -101 -5 -175 -3 -116 4 -148 1 -225 -18 -62 -16
-126 -23 -205 -25 -121 -2 -202 -19 -294 -59 -37 -16 -79 -25 -146 -29 -100
-5 -188 -31 -287 -81 -29 -14 -84 -30 -125 -36 -97 -14 -183 -43 -254 -87 -91
-55 -104 -61 -178 -72 -84 -12 -167 -51 -264 -125 -41 -31 -82 -56 -93 -56
-64 0 -221 -85 -313 -170 -22 -21 -71 -51 -108 -68 -83 -38 -141 -77 -238
-163 -42 -37 -105 -81 -141 -99 -48 -24 -91 -59 -169 -139 -58 -58 -137 -128
-177 -154 -80 -53 -141 -116 -207 -215 -25 -37 -61 -77 -80 -90 -56 -38 -139
-132 -186 -211 -25 -42 -78 -108 -121 -150 -76 -77 -125 -150 -168 -251 -13
-30 -42 -75 -65 -100 -24 -25 -53 -59 -65 -77 -31 -46 -86 -160 -106 -223 -11
-34 -35 -74 -61 -103 -56 -62 -98 -150 -125 -256 -14 -54 -35 -105 -60 -143
-21 -33 -48 -85 -59 -116 -22 -57 -50 -178 -50 -213 0 -10 -13 -40 -29 -66
-44 -72 -70 -162 -82 -281 -8 -76 -19 -126 -39 -172 -39 -93 -51 -154 -54
-277 -2 -74 -9 -131 -24 -182 -27 -93 -36 -198 -24 -281 7 -49 6 -85 -5 -145
-12 -60 -14 -111 -8 -205 3 -69 7 -201 8 -295 2 -148 5 -180 26 -245 18 -59
24 -100 25 -195 1 -109 5 -128 35 -210 20 -55 37 -123 42 -175 14 -133 26
-178 74 -277 32 -66 45 -105 45 -135 0 -87 52 -233 118 -330 19 -29 33 -68 41
-116 15 -85 60 -179 130 -272 34 -46 52 -81 60 -119 16 -75 70 -173 145 -262
35 -42 69 -93 76 -115 27 -85 73 -155 155 -233 64 -61 91 -96 120 -155 31 -63
55 -93 137 -171 55 -52 104 -95 109 -95 5 0 20 -23 35 -52 33 -65 106 -138
212 -212 45 -32 89 -70 97 -85 23 -46 136 -143 229 -198 48 -29 91 -53 94 -55
4 -2 28 -28 53 -58 49 -58 141 -119 241 -160 38 -15 79 -44 121 -86 69 -67
154 -116 272 -154 40 -13 91 -40 119 -62 71 -56 152 -95 261 -124 65 -17 112
-37 155 -66 71 -47 177 -83 283 -97 59 -7 88 -17 134 -45 68 -42 173 -71 293
-80 63 -6 101 -15 145 -37 72 -34 166 -50 289 -49 75 1 104 -3 166 -26 73 -26
80 -26 226 -21 116 5 162 3 199 -9 62 -18 212 -18 309 0 58 12 90 13 138 5 81
-14 194 -5 288 23 60 17 97 21 180 19 90 -2 117 1 190 24 47 15 102 36 122 46
27 14 59 19 118 19 91 0 172 23 300 84 41 20 89 36 107 36 87 0 211 45 312
114 29 20 63 36 75 36 79 0 215 57 314 132 47 36 86 56 142 72 87 25 154 65
252 148 39 34 89 66 121 78 78 29 162 87 237 164 48 49 85 76 140 102 63 30
93 54 185 148 61 62 130 124 155 138 64 37 137 110 203 203 31 44 72 91 92
104 58 39 148 143 199 229 31 51 70 99 109 135 63 55 123 144 166 246 13 31
45 77 77 110 58 59 128 184 160 286 10 31 36 77 61 107 62 75 120 207 139 316
3 20 19 53 34 72 60 77 91 159 109 286 7 49 23 96 51 150 48 95 69 171 77 284
4 69 12 98 39 155 39 79 59 206 51 310 -3 46 1 77 20 133 28 87 38 200 26 300
-8 60 -6 85 10 145 21 80 18 188 -7 307 -11 49 -12 78 -4 120 13 67 4 196 -18
270 -10 35 -17 102 -19 180 -3 134 -19 222 -60 321 -18 45 -25 81 -25 129 0
84 -20 161 -70 267 -25 54 -43 109 -49 156 -14 102 -56 207 -126 316 -12 20
-25 59 -28 86 -8 78 -44 160 -112 261 -38 55 -70 116 -80 150 -28 98 -87 195
-171 284 -18 19 -42 59 -53 88 -33 82 -86 159 -176 252 -45 47 -85 96 -88 110
-11 47 -68 119 -167 213 -54 51 -117 120 -140 154 -47 71 -113 134 -208 197
-37 24 -76 59 -86 77 -46 78 -127 147 -250 213 -46 24 -89 59 -129 101 -60 66
-134 115 -237 156 -33 13 -76 43 -107 73 -68 66 -156 119 -255 152 -54 18
-102 43 -146 77 -81 61 -146 91 -261 120 -59 15 -100 32 -130 55 -24 18 -56
39 -71 47 -43 22 -161 52 -237 60 -52 6 -79 15 -112 38 -65 44 -151 68 -271
74 -93 5 -112 10 -172 40 -79 40 -186 62 -309 63 -62 0 -103 6 -145 21 -69 25
-249 37 -330 22 -32 -6 -60 -6 -75 0 -30 12 -289 18 -344 8z m287 -91 c87 -32
132 -96 213 -300 15 -36 28 -70 31 -77 17 -36 -198 -19 -250 21 -36 27 -109
132 -151 216 -15 30 -42 76 -61 102 l-34 48 33 9 c47 15 154 6 219 -19z m-431
-6 c75 -22 131 -83 203 -226 32 -62 62 -118 67 -124 14 -17 -14 -25 -113 -31
-81 -5 -89 -4 -132 21 -46 27 -129 121 -181 206 -15 25 -46 66 -67 92 l-40 48
24 8 c12 5 30 12 38 15 31 11 148 6 201 -9z m854 -23 c95 -42 136 -101 181
-263 15 -51 33 -105 41 -120 l14 -28 -59 0 c-32 0 -84 5 -115 11 -82 17 -120
62 -215 257 -42 86 -79 161 -81 166 -2 5 39 7 90 4 69 -3 108 -10 144 -27z
m-1266 -27 c64 -19 114 -66 181 -172 27 -42 62 -96 79 -119 l30 -42 -31 -10
c-17 -6 -68 -14 -113 -17 -66 -5 -87 -3 -115 11 -48 25 -123 98 -197 192 -35
45 -76 91 -91 102 -32 23 -28 28 40 52 65 23 148 24 217 3z m1622 -10 c30 -9
75 -29 101 -46 74 -46 102 -104 138 -277 11 -53 22 -106 26 -118 6 -20 3 -23
-23 -23 -51 0 -186 39 -209 61 -33 31 -78 121 -118 236 -19 56 -42 116 -50
132 -9 17 -16 35 -16 41 0 15 89 12 151 -6z m-2006 -86 c36 -19 132 -116 176
-178 17 -25 46 -60 63 -78 37 -40 32 -44 -66 -67 -148 -34 -185 -18 -358 150
-58 56 -116 107 -128 114 l-24 13 22 15 c13 9 48 24 79 35 67 22 190 20 236
-4z m2463 -24 c125 -61 162 -130 181 -334 6 -58 13 -115 16 -126 6 -21 5 -21
-38 -13 -24 4 -74 20 -111 35 -97 39 -126 89 -176 309 -12 55 -29 112 -36 127
-8 15 -14 30 -14 34 0 16 125 -6 178 -32z m-2832 -120 c31 -21 80 -65 108 -98
28 -34 70 -79 93 -102 l41 -42 -36 -16 c-52 -23 -141 -46 -182 -46 -47 0 -138
54 -237 142 -43 39 -97 83 -121 98 l-43 28 32 22 c54 39 136 61 217 57 65 -4
78 -8 128 -43z m3219 -3 c70 -33 131 -89 152 -140 9 -20 17 -74 19 -121 3 -47
6 -120 8 -162 4 -75 3 -78 -18 -78 -34 0 -181 75 -200 102 -26 36 -56 144 -72
258 -8 58 -19 118 -24 134 -6 16 -10 33 -10 38 0 16 81 -2 145 -31z m-3649
-131 c34 -17 101 -67 157 -120 55 -49 104 -90 110 -90 27 -1 -39 -41 -115 -70
-59 -23 -88 -29 -112 -24 -49 10 -144 61 -231 124 -44 31 -99 67 -123 79 -37
19 -42 25 -31 37 21 26 92 63 149 78 85 23 129 20 196 -14z m4031 -30 c58 -25
132 -97 155 -148 16 -36 19 -63 17 -165 -1 -67 -3 -144 -3 -170 -1 -46 -2 -48
-26 -42 -52 13 -165 82 -187 114 -29 42 -42 110 -54 261 -5 69 -13 139 -18
156 l-9 31 41 -9 c23 -5 61 -18 84 -28z m-2392 -27 c67 -17 139 -13 251 13 67
16 74 16 120 -1 62 -22 224 -31 291 -16 47 9 57 8 105 -14 68 -31 184 -49 272
-42 62 5 72 4 105 -19 59 -40 155 -66 265 -69 81 -3 102 -7 120 -23 51 -47
154 -81 291 -97 48 -6 67 -13 96 -40 20 -17 60 -43 90 -57 55 -26 169 -58 205
-58 11 0 44 -23 73 -51 58 -55 140 -99 243 -128 54 -16 73 -28 124 -79 58 -58
151 -114 236 -141 24 -8 45 -24 58 -45 41 -67 182 -176 259 -201 12 -3 37 -30
55 -58 19 -29 45 -64 58 -78 35 -40 129 -113 166 -128 23 -10 38 -27 56 -67
29 -63 106 -149 190 -211 48 -36 63 -54 77 -93 24 -68 71 -133 156 -217 41
-40 73 -80 73 -91 0 -40 81 -182 139 -243 51 -53 60 -69 72 -123 17 -80 69
-182 123 -243 39 -44 44 -54 48 -113 7 -83 38 -165 94 -246 35 -51 44 -73 44
-107 1 -93 58 -276 96 -308 10 -8 14 -38 14 -103 0 -99 17 -180 55 -263 22
-48 23 -59 14 -114 -12 -74 1 -182 32 -264 19 -52 20 -63 9 -112 -18 -81 -14
-217 8 -288 18 -59 18 -61 -2 -105 -22 -52 -33 -219 -19 -310 7 -46 5 -60 -13
-97 -30 -58 -47 -170 -42 -262 4 -62 2 -80 -14 -106 -32 -52 -66 -178 -74
-270 -6 -72 -12 -97 -35 -134 -37 -60 -75 -180 -84 -261 -5 -48 -13 -72 -30
-90 -44 -47 -93 -140 -114 -218 -12 -43 -21 -86 -21 -96 0 -10 -21 -41 -46
-69 -52 -58 -103 -152 -130 -242 -14 -46 -30 -72 -68 -110 -61 -61 -120 -151
-147 -224 -16 -46 -31 -65 -74 -98 -69 -54 -129 -130 -171 -217 -25 -52 -41
-73 -66 -85 -52 -25 -160 -134 -198 -199 -28 -47 -46 -65 -92 -91 -68 -37
-163 -123 -214 -192 -19 -27 -41 -49 -47 -49 -24 0 -147 -69 -194 -108 -27
-23 -64 -62 -82 -86 -25 -33 -42 -46 -70 -51 -66 -12 -175 -72 -243 -134 -56
-51 -75 -63 -120 -71 -73 -14 -160 -57 -240 -118 -45 -35 -77 -52 -96 -52 -74
0 -213 -52 -292 -110 -40 -30 -52 -34 -120 -35 -86 -3 -167 -28 -250 -79 -50
-30 -61 -33 -115 -29 -76 6 -189 -18 -272 -57 -60 -28 -68 -29 -110 -18 -63
15 -184 4 -273 -26 -74 -25 -76 -26 -150 -10 -82 17 -170 13 -266 -12 -52 -13
-60 -13 -122 7 -74 23 -214 28 -290 11 -38 -9 -51 -7 -96 14 -66 30 -182 47
-269 38 -63 -6 -72 -4 -126 25 -78 41 -160 61 -255 61 -68 0 -84 3 -110 24
-80 61 -213 105 -314 106 -37 0 -51 7 -89 40 -59 52 -136 87 -231 108 -67 14
-84 22 -130 64 -58 52 -170 111 -247 130 -38 9 -63 25 -107 68 -71 67 -162
124 -229 141 -39 10 -54 20 -70 46 -34 55 -138 140 -219 180 -66 33 -81 44
-101 83 -34 63 -127 151 -201 190 -55 29 -66 40 -90 89 -36 74 -94 139 -177
201 -53 39 -71 59 -79 89 -18 60 -83 151 -153 216 -53 49 -69 70 -83 115 -28
88 -74 164 -134 226 -49 50 -59 66 -69 117 -17 81 -55 160 -119 243 -40 53
-54 80 -54 104 0 79 -52 219 -109 290 -23 30 -29 48 -34 117 -7 94 -36 188
-78 254 -26 41 -29 54 -29 130 0 101 -20 184 -61 258 -31 54 -31 54 -16 106
13 45 13 65 1 143 -7 50 -21 114 -31 144 -16 48 -17 57 -4 93 22 60 19 216 -5
290 -20 59 -20 61 -1 110 24 61 34 217 18 297 -9 52 -8 62 14 110 32 71 49
175 42 262 -5 66 -3 76 29 141 39 81 54 149 54 250 0 60 3 75 21 91 47 43 91
164 105 294 6 56 12 70 41 100 48 50 91 143 111 241 16 78 21 88 59 123 50 45
104 147 129 244 15 57 23 72 50 90 64 42 146 164 174 258 9 30 26 52 65 82 60
47 134 140 175 222 23 44 41 63 95 99 67 43 127 114 175 204 18 35 35 48 92
75 76 37 188 138 221 202 16 29 29 38 79 54 72 23 165 91 220 160 34 43 51 54
105 73 79 26 158 73 227 134 40 36 64 49 107 58 77 16 182 69 251 125 40 32
66 46 87 46 85 0 206 44 284 104 38 29 52 33 129 39 93 6 203 42 271 88 33 23
42 25 90 18 83 -13 197 10 294 60 36 18 48 19 101 11 74 -12 175 0 270 34 37
12 74 21 82 18 8 -2 42 -11 75 -19z m-2009 -139 c45 -24 105 -66 207 -144 21
-16 44 -31 50 -34 36 -15 -142 -106 -206 -106 -42 0 -162 53 -268 118 -46 28
-99 57 -116 63 -18 6 -33 14 -33 17 0 9 58 55 90 72 88 47 203 53 276 14z
m4750 -9 c60 -25 122 -76 161 -133 36 -52 38 -58 38 -136 -1 -87 -34 -296 -48
-296 -16 0 -72 33 -125 72 -81 60 -85 77 -88 311 -3 218 -5 210 62 182z
m-5089 -215 c34 -16 83 -43 110 -61 26 -19 70 -45 96 -60 l48 -26 -33 -25
c-70 -52 -145 -88 -185 -88 -56 0 -132 24 -252 81 -57 27 -122 54 -144 60
l-40 10 34 36 c45 46 102 79 169 97 67 18 115 12 197 -24z m5481 -33 c55 -33
106 -87 136 -144 24 -47 21 -152 -9 -269 -14 -54 -25 -111 -25 -126 0 -16 -2
-28 -5 -28 -16 0 -70 35 -124 80 -80 66 -86 86 -76 264 4 78 8 169 9 203 1 73
4 73 94 20z m-5855 -198 c34 -11 105 -43 157 -70 52 -27 100 -49 107 -49 24 0
14 -18 -29 -53 -102 -82 -121 -90 -201 -85 -52 3 -117 20 -232 59 -88 29 -162
54 -164 56 -2 1 7 16 19 32 44 63 172 130 248 131 18 0 61 -9 95 -21z m6205
-61 c95 -65 150 -181 132 -277 -12 -65 -31 -129 -59 -199 -12 -29 -21 -64 -21
-77 0 -31 -2 -31 -54 4 -51 35 -113 103 -126 137 -17 42 -11 133 15 259 14 66
25 137 25 158 0 35 2 38 23 31 12 -4 41 -20 65 -36z m-6463 -238 c165 -59 205
-75 205 -81 0 -9 -88 -93 -130 -125 -33 -25 -39 -26 -125 -20 -53 3 -135 17
-200 35 -60 17 -124 31 -141 31 -17 0 -33 3 -37 6 -9 10 47 87 85 116 112 85
190 94 343 38z m6764 -40 c68 -50 139 -166 140 -230 1 -43 -28 -140 -68 -230
-22 -47 -43 -98 -49 -115 l-9 -30 -72 74 c-88 91 -99 122 -83 224 6 40 25 116
42 171 16 54 30 107 30 116 0 24 10 50 20 50 4 0 26 -14 49 -30z m-7053 -251
c43 -12 107 -29 141 -38 l63 -17 -17 -25 c-27 -40 -106 -120 -135 -135 -39
-20 -171 -18 -308 6 -63 11 -127 20 -142 20 -35 0 -35 5 1 61 32 51 87 100
146 129 54 27 149 26 251 -1z m7359 -80 c46 -43 100 -137 111 -195 3 -19 1
-55 -5 -81 -12 -45 -26 -75 -109 -236 l-40 -77 -47 52 c-25 28 -58 71 -72 95
-22 39 -25 52 -20 103 4 31 23 102 43 156 31 86 58 168 70 212 6 21 23 14 69
-29z m-7610 -245 c39 -9 94 -18 123 -21 28 -3 52 -8 52 -12 0 -31 -114 -166
-155 -183 -31 -13 -149 -16 -356 -8 -107 4 -107 4 -98 27 29 77 101 157 173
193 51 25 159 27 261 4z m7878 -94 c67 -73 104 -176 93 -252 -7 -46 -60 -145
-130 -244 -24 -34 -46 -68 -48 -75 -8 -22 -54 27 -94 97 -56 101 -45 166 66
379 26 50 49 100 52 113 8 31 20 28 61 -18z m-8048 -251 c32 -6 66 -8 76 -6
28 7 23 -12 -17 -79 -76 -126 -112 -142 -334 -150 -80 -2 -162 -6 -182 -8 -32
-4 -38 -1 -38 15 0 23 32 90 64 132 30 42 107 95 152 107 44 11 193 5 279 -11z
m8336 -197 c15 -37 23 -80 23 -122 1 -58 -3 -73 -34 -124 -19 -32 -62 -91 -96
-132 -34 -40 -68 -83 -75 -95 -15 -21 -15 -21 -40 17 -50 77 -81 163 -74 201
10 52 47 131 103 220 28 43 61 100 74 126 l23 49 37 -42 c20 -23 47 -67 59
-98z m-8461 -167 c-1 -18 -38 -94 -70 -140 -50 -72 -91 -86 -325 -110 -77 -8
-150 -18 -163 -21 -21 -6 -22 -4 -16 22 29 128 123 232 226 254 59 12 348 8
348 -5z m8603 -125 c40 -47 67 -132 67 -208 0 -87 -25 -131 -151 -268 -91 -99
-95 -102 -111 -83 -24 28 -71 157 -70 192 1 56 52 147 159 289 28 37 54 76 58
87 9 28 19 26 48 -9z m-8789 -247 c-13 -56 -68 -165 -96 -188 -35 -30 -137
-61 -280 -86 -59 -11 -119 -24 -133 -29 -38 -14 -38 -14 -31 33 17 108 102
223 184 251 45 16 170 33 282 39 30 2 61 4 68 5 9 1 10 -6 6 -25z m8983 -190
c39 -80 45 -201 13 -264 -21 -40 -234 -259 -253 -259 -11 0 -42 72 -62 147
l-17 62 30 63 c16 35 62 101 101 148 39 47 86 106 103 132 36 56 44 54 85 -29z
m-9137 -188 c0 -14 -12 -55 -26 -92 -43 -112 -93 -144 -314 -198 -57 -14 -119
-32 -138 -40 -19 -8 -37 -15 -40 -15 -14 0 10 119 34 168 58 119 131 159 344
186 148 19 140 20 140 -9z m9275 -248 c21 -70 19 -172 -4 -222 -21 -47 -111
-134 -196 -192 -34 -23 -67 -48 -74 -57 -7 -9 -17 -16 -21 -16 -12 0 -38 84
-48 153 -14 87 11 129 165 290 125 131 128 134 145 115 10 -11 25 -43 33 -71z
m-9421 -230 c-11 -45 -27 -81 -45 -102 -33 -37 -132 -92 -236 -129 -40 -14
-95 -37 -122 -51 l-51 -25 -6 26 c-17 66 28 203 85 262 44 45 106 72 256 109
55 14 107 29 115 33 23 13 25 -40 4 -123z m9508 -172 c6 -22 11 -72 11 -111
-1 -129 -40 -182 -213 -288 -52 -32 -103 -65 -112 -73 -15 -13 -18 -12 -28 6
-14 27 -32 179 -24 206 13 42 83 120 179 198 55 45 111 95 124 111 23 27 25
27 38 10 7 -10 19 -37 25 -59z m-9582 -247 c-11 -63 -16 -71 -62 -113 -30 -27
-99 -68 -176 -106 -70 -34 -140 -70 -155 -81 -16 -11 -31 -17 -35 -13 -4 4 -7
42 -6 84 1 65 6 89 31 143 44 94 105 134 294 192 46 15 91 30 99 36 12 8 16 2
18 -33 2 -23 -1 -72 -8 -109z m9640 -179 c16 -65 7 -165 -19 -223 -24 -56 -97
-114 -210 -168 -47 -23 -98 -50 -113 -60 l-28 -19 -10 26 c-5 14 -10 66 -10
114 0 77 3 91 25 121 32 43 100 100 192 160 39 26 89 61 109 78 21 17 41 29
45 27 4 -3 13 -28 19 -56z m-9680 -161 c0 -46 -5 -100 -10 -120 -13 -46 -81
-107 -193 -173 -45 -26 -108 -65 -140 -87 -69 -47 -72 -44 -71 82 2 167 69
243 290 326 37 14 76 31 88 39 11 8 24 15 28 15 5 0 8 -37 8 -82z m9696 -264
c15 -102 -12 -217 -64 -277 -25 -28 -127 -82 -222 -118 -47 -17 -89 -36 -94
-40 -28 -25 -36 -8 -36 74 0 100 11 141 47 180 36 37 122 96 198 135 33 16 78
44 100 60 22 17 45 31 52 31 7 1 15 -19 19 -45z m-9702 -126 c4 -26 4 -74 0
-108 -6 -53 -12 -67 -50 -109 -24 -27 -85 -77 -136 -112 -51 -34 -111 -78
-134 -96 -23 -18 -44 -33 -47 -33 -13 0 -27 68 -27 129 0 156 54 225 258 327
50 26 97 53 104 61 15 19 23 4 32 -59z m9692 -293 c17 -90 -34 -240 -98 -288
-46 -36 -125 -69 -238 -102 -52 -15 -100 -31 -107 -36 -46 -39 -9 197 39 248
34 37 121 86 232 132 54 23 110 50 125 61 35 26 39 25 47 -15z m-9661 -178 c7
-71 5 -80 -19 -121 -14 -24 -65 -79 -112 -123 -48 -43 -111 -101 -141 -129
-38 -37 -56 -48 -63 -39 -21 26 -42 139 -36 195 13 112 63 171 238 283 47 31
90 61 94 68 12 19 31 -47 39 -134z m9605 -284 c0 -72 -26 -152 -69 -211 -31
-44 -128 -88 -261 -118 -63 -14 -122 -30 -132 -35 -16 -9 -18 -5 -18 33 0 59
35 176 61 204 31 33 140 87 259 129 58 20 114 42 125 50 11 8 23 14 28 14 4 1
7 -29 7 -66z m-9563 -15 c18 -51 36 -166 29 -191 -10 -42 -59 -103 -183 -231
l-123 -125 -22 42 c-20 36 -23 57 -23 148 0 104 1 108 31 150 17 24 67 72 110
107 43 34 97 78 119 97 22 19 42 34 45 35 4 0 11 -15 17 -32z m9468 -450 c-18
-72 -75 -162 -123 -194 -38 -26 -132 -49 -253 -63 -47 -5 -97 -13 -112 -16
-36 -10 -36 10 4 119 21 58 40 94 60 110 38 32 117 62 264 98 66 17 131 36
145 43 23 12 25 12 28 -11 2 -13 -4 -52 -13 -86z m-9344 -66 c13 -63 13 -64
-19 -125 -17 -34 -61 -96 -96 -137 -36 -41 -83 -101 -105 -132 l-39 -58 -21
34 c-36 57 -53 118 -53 191 -1 100 21 137 161 273 l116 113 22 -48 c12 -27 27
-77 34 -111z m108 -294 c40 -85 53 -138 42 -174 -14 -50 -56 -126 -117 -209
-32 -44 -70 -102 -85 -129 l-27 -49 -30 42 c-42 57 -64 131 -64 206 -1 83 28
135 143 260 49 53 89 101 89 106 0 26 22 2 49 -53z m9096 -68 c-27 -80 -93
-163 -152 -188 -49 -21 -158 -37 -311 -45 l-73 -4 7 31 c13 61 71 173 101 194
41 29 139 58 275 82 64 11 127 24 140 29 20 8 23 5 26 -21 2 -16 -4 -51 -13
-78z m-8968 -257 c7 -10 30 -49 49 -87 31 -61 36 -77 32 -123 -5 -53 -10 -64
-141 -315 l-46 -87 -36 40 c-48 54 -76 120 -82 197 -5 57 -3 68 31 135 19 39
63 105 96 146 33 41 62 82 65 92 8 24 14 24 32 2z m8822 -83 c-23 -102 -118
-219 -195 -239 -46 -12 -150 -17 -286 -13 l-97 2 14 39 c7 21 32 68 54 104 58
91 106 109 338 126 71 6 140 14 154 19 13 6 25 9 26 8 1 -1 -3 -21 -8 -46z
m-8622 -292 c41 -44 93 -146 93 -180 0 -48 -25 -128 -72 -227 -23 -47 -51
-113 -63 -146 l-23 -60 -40 42 c-54 57 -93 139 -99 212 -5 54 -2 67 30 135 19
41 56 104 81 140 24 37 48 76 51 86 8 26 17 25 42 -2z m8427 -85 c-21 -87
-105 -191 -184 -226 -50 -23 -181 -26 -307 -8 -40 6 -79 8 -87 5 -9 -3 -16 -1
-16 5 0 19 40 92 81 148 53 71 94 83 309 92 91 4 175 8 188 9 20 2 22 -1 16
-25z m-8132 -348 c38 -57 40 -63 35 -120 -3 -33 -16 -94 -30 -135 -37 -110
-89 -254 -93 -259 -9 -10 -71 50 -104 101 -77 118 -75 196 7 354 25 49 55 108
66 132 l21 42 29 -27 c16 -16 48 -55 69 -88z m7840 1 c63 -1 67 -2 62 -21 -21
-70 -122 -183 -189 -211 -45 -18 -161 -18 -250 2 -38 8 -92 19 -119 24 -27 6
-52 12 -54 15 -9 8 18 51 70 112 75 90 93 95 278 86 74 -4 165 -7 202 -7z
m-7596 -294 c34 -41 55 -77 59 -101 7 -42 -16 -180 -45 -272 -11 -35 -23 -88
-26 -116 l-7 -53 -29 18 c-53 31 -110 96 -141 160 -25 54 -29 71 -23 115 6 57
39 159 80 250 14 32 26 67 26 78 0 19 1 19 27 2 14 -10 50 -46 79 -81z m7239
-43 c60 -10 122 -19 137 -19 35 0 35 -5 0 -61 -35 -54 -100 -111 -160 -140
-60 -30 -171 -22 -302 20 -52 17 -107 31 -122 31 -16 0 -28 3 -28 7 0 14 82
112 122 143 67 54 133 58 353 19z m-6971 -230 c32 -29 64 -65 71 -80 21 -40
19 -164 -5 -294 -11 -60 -20 -124 -20 -142 0 -39 0 -39 -48 -14 -89 46 -172
166 -172 250 0 48 21 143 60 273 27 89 25 89 114 7z m6666 -75 c74 -19 145
-34 157 -34 13 0 23 -4 23 -8 0 -19 -62 -94 -103 -123 -122 -90 -198 -91 -412
-6 -49 19 -100 38 -113 42 -22 6 -22 6 -3 34 27 37 123 113 163 128 45 17 125
8 288 -33z m-6326 -216 c74 -66 80 -89 71 -262 -4 -78 -8 -169 -9 -203 -1 -58
-3 -62 -21 -57 -67 20 -173 113 -211 185 -25 48 -21 153 10 284 14 59 26 116
26 126 0 20 1 20 40 -2 22 -13 65 -45 94 -71z m5856 -27 c41 -11 132 -39 202
-64 l127 -44 -30 -36 c-42 -51 -104 -92 -175 -115 -83 -28 -133 -18 -308 65
-165 78 -162 69 -50 149 99 71 117 74 234 45z m-5528 -203 c84 -59 90 -81 97
-321 5 -171 4 -197 -9 -197 -29 0 -118 48 -159 86 -87 78 -113 164 -91 304 6
41 14 105 17 142 l6 67 41 -21 c22 -11 67 -38 98 -60z m5223 -46 c39 -13 97
-38 130 -55 33 -17 84 -38 114 -47 l54 -17 -43 -43 c-23 -23 -72 -56 -108 -73
-122 -58 -225 -39 -382 69 -29 20 -70 44 -92 54 l-39 17 37 33 c21 18 69 48
108 66 80 38 103 38 221 -4z m-4890 -153 c72 -44 80 -51 97 -84 23 -45 38
-128 48 -271 4 -71 12 -138 16 -148 7 -17 4 -19 -30 -13 -62 10 -128 48 -187
107 -79 78 -87 121 -73 363 l7 106 36 -15 c20 -8 59 -28 86 -45z m4489 -39
c29 -11 91 -43 137 -71 46 -28 110 -64 142 -79 l58 -28 -46 -36 c-56 -42 -135
-74 -210 -82 -50 -6 -62 -3 -128 29 -39 20 -111 67 -159 106 -48 38 -93 72
-100 74 -36 15 148 106 214 107 21 0 62 -9 92 -20z m-4116 -141 c80 -37 84
-41 108 -94 15 -31 35 -102 45 -158 31 -168 38 -201 45 -226 7 -23 6 -24 -37
-17 -59 9 -143 49 -194 91 -72 59 -90 121 -98 332 l-4 123 26 -6 c14 -3 63
-23 109 -45z m3746 -50 c35 -17 101 -59 147 -92 46 -33 101 -69 122 -80 31
-16 35 -22 26 -34 -37 -44 -167 -92 -250 -93 -56 0 -146 52 -241 139 -48 44
-97 85 -109 91 -19 10 -19 14 -7 26 25 25 161 73 206 74 29 0 64 -10 106 -31z
m-3417 -74 c96 -30 137 -55 163 -97 24 -40 63 -157 84 -253 8 -39 22 -88 31
-108 l15 -37 -45 0 c-55 0 -133 29 -197 72 -79 54 -108 127 -128 323 -5 51
-12 100 -16 109 -8 21 1 20 93 -9z m3009 -60 c28 -14 88 -56 135 -95 46 -38
105 -84 131 -102 26 -18 48 -37 48 -41 0 -4 -30 -22 -67 -39 -51 -24 -84 -33
-145 -36 -112 -7 -152 16 -296 162 -127 130 -127 120 -6 155 94 27 140 26 200
-4z m-2558 -70 c108 -34 136 -71 205 -272 20 -56 45 -120 57 -142 l20 -41 -54
0 c-30 0 -83 9 -118 20 -142 44 -189 109 -237 335 -11 50 -23 98 -26 108 -6
14 -1 17 33 17 23 0 77 -11 120 -25z m2160 -41 c35 -21 292 -265 292 -278 0
-2 -24 -14 -52 -27 -74 -32 -215 -33 -273 -2 -45 24 -122 102 -179 183 -22 30
-50 67 -64 82 -23 25 -23 27 -6 36 17 9 79 22 164 36 38 6 70 -3 118 -30z
m-1768 -33 c78 -17 88 -22 123 -62 21 -24 59 -86 83 -139 25 -52 60 -125 79
-162 l34 -68 -26 -6 c-52 -13 -156 5 -223 38 -83 42 -119 94 -161 232 -17 55
-37 116 -45 134 -8 18 -14 37 -14 42 0 15 56 12 150 -9z m1355 -43 c26 -18 78
-68 114 -112 36 -44 90 -105 119 -137 l54 -58 -39 -17 c-55 -25 -202 -25 -265
-1 -59 23 -122 91 -190 206 -27 47 -57 94 -66 104 -8 9 -13 19 -10 22 10 11
95 23 164 24 64 1 75 -2 119 -31z m-872 -12 c44 -18 114 -106 168 -211 23 -44
57 -101 75 -127 l34 -47 -43 -12 c-93 -25 -241 15 -301 81 -41 46 -65 90 -118
220 -22 52 -42 101 -45 109 -5 12 10 13 95 8 55 -3 116 -13 135 -21z m424 -7
c49 -24 107 -88 187 -209 31 -47 67 -99 81 -116 l25 -31 -45 -13 c-58 -16
-185 -8 -243 15 -60 24 -112 89 -182 226 -33 65 -66 121 -73 126 -19 12 30 21
122 22 67 1 94 -3 128 -20z"/>
<path d="M5897 9403 c-15 -15 -32 -17 -107 -15 -84 3 -91 2 -115 -22 -17 -17
-25 -36 -25 -59 0 -56 17 -69 98 -75 101 -7 93 -22 -18 -34 -50 -6 -32 -91 22
-102 18 -3 28 -11 26 -18 -3 -9 -32 -14 -89 -16 -91 -3 -119 -17 -119 -59 0
-32 25 -79 46 -87 9 -4 32 -4 50 0 27 5 34 3 34 -10 0 -21 -12 -20 -145 6 -64
12 -122 18 -138 14 -35 -8 -54 -47 -41 -83 15 -42 62 -63 166 -73 51 -5 143
-14 203 -19 112 -11 168 -23 195 -41 13 -9 12 -13 -9 -30 -30 -26 -52 -25
-161 6 -74 21 -106 25 -180 22 -100 -3 -127 -18 -117 -60 10 -39 56 -58 142
-58 77 0 176 -20 225 -45 l27 -14 -15 -80 c-16 -90 -10 -111 33 -111 31 0 60
39 75 100 7 28 16 53 21 56 5 3 34 -6 65 -20 70 -32 195 -54 276 -47 22 1 41
36 33 60 -7 22 -34 34 -138 61 -99 25 -177 66 -177 93 0 18 5 19 48 14 65 -8
145 -39 228 -89 90 -55 170 -87 214 -88 41 0 92 28 115 64 37 56 -37 116 -171
140 -114 20 -178 46 -182 74 -5 30 17 36 69 18 59 -21 72 -20 97 7 27 29 27
38 1 71 -12 15 -32 48 -44 73 -23 45 -23 46 -5 72 32 45 29 63 -12 83 -56 27
-46 41 12 18 28 -11 61 -20 74 -20 28 0 49 36 44 76 -3 25 -13 34 -75 64 -71
35 -72 35 -75 79 -2 32 -9 48 -26 59 -21 14 -24 12 -60 -27 -43 -47 -64 -50
-144 -22 -29 10 -71 23 -93 27 -30 7 -43 16 -54 39 -8 17 -19 33 -25 37 -20
14 -61 8 -79 -9z m173 -198 c51 -11 110 -36 110 -47 0 -15 -107 0 -160 23 -35
16 -41 22 -30 29 8 5 22 8 30 6 8 -3 31 -8 50 -11z m-81 -132 c22 -6 23 -9 17
-65 -8 -83 -37 -145 -71 -154 -33 -8 -131 8 -128 21 0 6 23 18 50 27 26 10 54
25 61 35 18 25 15 64 -9 89 -40 43 3 68 80 47z m277 -54 c28 -23 16 -47 -36
-70 -53 -24 -66 -53 -35 -79 23 -19 18 -49 -11 -60 -37 -14 -59 -12 -84 8 -20
16 -21 21 -10 62 6 25 23 71 38 104 l26 58 49 -5 c27 -4 55 -12 63 -18z"/>
<path d="M3839 9262 l-32 -28 21 -89 20 -88 -24 -22 c-14 -13 -77 -46 -142
-75 -128 -57 -134 -62 -156 -104 -19 -38 -6 -75 45 -121 56 -51 76 -47 163 33
41 37 98 80 128 95 49 26 54 26 65 10 21 -28 16 -173 -7 -235 -36 -94 -81
-145 -165 -182 -40 -19 -78 -43 -84 -54 -13 -25 21 -150 47 -170 31 -24 164 8
211 51 56 51 109 214 118 361 6 100 16 136 35 136 7 0 63 -33 123 -73 61 -40
151 -93 200 -117 88 -44 92 -45 187 -45 91 0 99 2 139 30 29 20 54 52 78 96
44 82 39 99 -26 99 -64 0 -265 33 -383 64 -171 43 -270 90 -270 125 0 22 35
36 176 66 43 9 89 24 101 31 53 33 66 113 28 171 -15 23 -21 24 -63 18 -91
-14 -213 -55 -263 -90 -53 -36 -110 -47 -126 -22 -4 6 -15 44 -23 82 l-15 70
-37 3 c-29 2 -43 -3 -69 -26z"/>
<path d="M7520 8647 c-44 -22 -61 -115 -28 -154 6 -8 20 -10 34 -7 17 4 37 -2
64 -20 79 -52 170 -22 170 57 0 34 -3 36 -102 86 -57 28 -105 51 -108 51 -3 0
-16 -6 -30 -13z"/>
<path d="M2348 8480 c-19 -11 -51 -61 -67 -103 -15 -38 14 -67 68 -67 37 0 40
-2 43 -32 3 -32 5 -33 49 -36 52 -3 65 -21 75 -96 5 -41 4 -42 -188 -276 -106
-129 -203 -239 -214 -245 -43 -21 -54 -37 -54 -76 0 -56 26 -79 91 -79 65 0
150 -49 211 -121 58 -70 98 -63 98 16 0 61 -29 97 -124 156 -47 29 -86 57 -86
64 0 11 76 122 123 179 29 36 47 28 47 -23 0 -78 53 -84 106 -11 43 60 70 66
80 16 5 -31 1 -41 -35 -84 -22 -26 -54 -58 -71 -70 -16 -13 -30 -31 -30 -42 0
-22 45 -60 71 -60 28 0 73 44 120 117 62 98 77 113 115 113 24 0 34 -5 39 -20
8 -25 -14 -55 -99 -140 -36 -35 -66 -72 -66 -82 0 -18 36 -48 58 -48 14 0 111
59 164 100 27 21 68 112 68 152 0 11 -14 49 -31 83 -36 73 -35 105 3 123 76
36 101 124 47 165 -36 26 -61 11 -95 -54 -31 -63 -51 -62 -74 5 -22 67 -45 76
-107 45 -35 -18 -65 -48 -111 -109 -62 -81 -95 -111 -108 -97 -4 4 1 18 10 32
35 54 238 291 259 302 46 26 81 16 138 -37 29 -27 62 -50 72 -50 21 0 67 46
67 67 0 26 -21 57 -73 108 -29 28 -60 65 -69 83 -18 35 -32 38 -91 21 -28 -7
-50 -26 -89 -74 -28 -36 -53 -65 -55 -65 -1 0 -15 24 -29 53 -43 84 -62 106
-105 117 -32 9 -39 15 -39 35 0 43 -68 70 -112 45z m362 -597 c0 -26 -31 -53
-62 -53 -23 0 -28 4 -28 25 0 28 23 44 63 45 19 0 27 -5 27 -17z"/>
<path d="M7334 8459 c-25 -28 -31 -115 -10 -138 15 -17 30 -19 124 -17 119 3
138 8 148 39 8 26 -36 68 -63 61 -10 -3 -39 9 -65 25 -26 16 -62 34 -82 39
-29 8 -37 7 -52 -9z"/>
<path d="M7934 8318 c-13 -26 -14 -38 -5 -70 10 -32 21 -42 64 -64 89 -45 127
-94 72 -94 -43 0 -81 27 -114 80 -24 39 -36 50 -57 50 -55 0 -84 -41 -49 -70
8 -7 15 -21 15 -31 0 -12 11 -24 28 -31 64 -29 119 -88 80 -88 -6 0 -63 35
-125 78 -138 93 -171 112 -200 112 -30 0 -46 -34 -38 -79 8 -45 19 -57 67 -82
73 -37 37 -83 -95 -119 -98 -27 -160 -28 -225 -5 -51 19 -52 19 -79 -2 -54
-40 -33 -127 42 -173 30 -19 43 -20 118 -14 60 5 90 3 108 -6 50 -27 103 -78
160 -154 60 -78 60 -78 42 -105 -40 -60 -46 -81 -33 -111 17 -41 45 -63 69
-55 11 3 38 35 60 70 52 81 197 262 221 275 46 25 71 7 149 -107 41 -59 54
-68 128 -92 29 -9 35 -7 53 16 41 52 40 111 -2 130 -26 13 -258 248 -286 291
-33 50 3 33 64 -31 54 -56 69 -67 87 -61 36 11 47 25 47 61 0 35 1 35 -99 126
-28 26 -49 52 -46 57 13 22 42 7 68 -34 15 -24 48 -63 73 -86 39 -36 50 -41
86 -38 31 2 46 10 62 31 l21 28 -58 51 c-32 27 -77 78 -101 112 -36 50 -43 67
-39 94 3 18 0 39 -7 47 -14 17 -53 20 -80 5 -15 -8 -27 -4 -56 15 -20 14 -41
25 -45 25 -5 0 -12 14 -17 32 -8 33 -29 45 -84 47 -21 1 -31 -6 -44 -31z m10
-438 c58 -60 77 -85 74 -102 -5 -39 -47 -30 -78 16 -16 22 -45 48 -71 60 -50
24 -72 64 -49 90 23 29 46 17 124 -64z m-204 -65 c27 -33 -15 -75 -76 -75 -20
0 -24 5 -24 29 0 48 71 81 100 46z m160 -127 c11 -12 20 -34 20 -50 0 -28 -30
-68 -52 -68 -20 0 -78 62 -78 84 0 52 72 75 110 34z"/>
<path d="M2180 8297 c-19 -9 -25 -21 -25 -45 -1 -39 -13 -52 -56 -61 -71 -14
-63 -70 12 -85 39 -7 47 -13 61 -47 14 -33 21 -39 47 -39 23 0 37 -9 62 -40
49 -61 85 -51 91 25 3 37 6 41 45 53 46 15 58 33 42 64 -8 15 -18 19 -37 15
-21 -4 -34 2 -58 29 -21 22 -41 34 -58 34 -27 0 -33 8 -52 75 -11 34 -36 42
-74 22z m117 -168 c17 -17 4 -39 -21 -39 -25 0 -46 17 -46 37 0 16 52 17 67 2z"/>
<path d="M7132 8253 c-57 -54 -68 -116 -26 -157 21 -22 83 -20 122 4 24 15 50
20 98 20 44 0 75 6 95 17 55 32 46 83 -15 83 -45 0 -96 17 -120 39 -12 11 -42
22 -67 26 -44 7 -48 5 -87 -32z"/>
<path d="M4825 8199 c-600 -61 -1167 -290 -1635 -659 -124 -98 -398 -370 -494
-490 -251 -314 -452 -702 -561 -1079 -316 -1100 -18 -2264 789 -3074 464 -466
1078 -777 1736 -878 170 -26 577 -37 755 -20 1267 120 2338 1005 2695 2226 49
168 84 344 105 535 23 200 16 607 -13 798 -77 490 -262 950 -542 1342 -446
627 -1105 1067 -1850 1235 -221 50 -370 66 -640 70 -140 2 -295 -1 -345 -6z
m516 -99 c1302 -101 2383 -1010 2697 -2267 68 -272 86 -426 86 -733 0 -350
-28 -555 -120 -865 -308 -1040 -1190 -1856 -2250 -2079 -242 -51 -341 -60
-629 -60 -304 0 -461 17 -715 79 -869 214 -1587 790 -1980 1590 -94 190 -136
296 -193 485 -134 442 -157 975 -62 1449 209 1042 973 1909 1981 2249 384 130
792 182 1185 152z"/>
<path d="M5030 7799 c-97 -28 -237 -98 -303 -151 l-28 -23 1260 -1229 c694
-676 1261 -1230 1261 -1232 0 -6 -573 -544 -580 -544 -5 0 -662 602 -1988
1823 l-23 21 -190 -190 -189 -189 1010 -963 1011 -963 -143 -151 c-79 -83
-207 -219 -286 -302 -78 -83 -146 -152 -151 -154 -5 -2 -416 376 -913 840
-1151 1073 -1114 1038 -1124 1037 -8 0 -305 -347 -342 -398 -11 -16 112 -136
1195 -1162 664 -629 1210 -1144 1213 -1144 3 0 228 236 500 525 272 289 686
727 919 974 458 484 510 542 585 656 98 148 154 323 141 440 l-6 55 -282 278
c-1083 1068 -1797 1752 -2085 1998 -154 131 -198 152 -327 156 -55 1 -116 -2
-135 -8z"/>
<path d="M3605 6464 c-555 -570 -1025 -1057 -1042 -1082 -89 -127 -127 -340
-84 -480 29 -97 81 -169 218 -302 194 -188 391 -378 518 -500 66 -63 172 -164
235 -225 133 -128 1420 -1356 1465 -1398 36 -33 116 -73 176 -86 111 -26 245
-3 344 60 56 35 165 137 165 155 0 16 -405 405 -1830 1759 -393 374 -714 681
-714 683 2 4 189 177 535 493 l86 79 998 -930 c550 -511 1002 -927 1007 -924
12 8 348 397 348 404 0 3 -271 262 -602 575 -331 314 -779 738 -996 944 l-394
374 298 298 c165 165 302 299 306 299 4 0 451 -423 994 -940 543 -517 990
-940 993 -940 6 0 147 150 354 376 l47 52 -1201 1144 c-661 628 -1204 1144
-1208 1145 -3 2 -460 -463 -1016 -1033z"/>
<path d="M1923 8072 c-20 -13 -53 -98 -55 -138 -1 -30 4 -41 23 -53 13 -9 69
-50 124 -91 55 -42 105 -79 112 -83 19 -12 61 10 77 40 24 48 40 147 27 172
-18 32 -49 26 -72 -14 -25 -42 -55 -48 -45 -10 3 14 9 37 12 52 5 19 2 30 -11
40 -30 21 -55 15 -88 -19 -29 -32 -30 -32 -24 -8 17 77 17 87 4 98 -19 16 -69
24 -84 14z"/>
<path d="M1564 6966 c-38 -38 -43 -70 -19 -116 19 -37 43 -50 92 -50 96 1 136
112 62 174 -45 38 -92 35 -135 -8z"/>
<path d="M8528 6984 c-89 -48 -50 -184 52 -184 103 0 141 138 50 185 -36 19
-67 19 -102 -1z"/>
<path d="M8983 6352 c-73 -14 -133 -30 -133 -36 0 -13 48 -187 52 -192 2 -1
23 0 47 3 l43 6 -6 42 -7 42 53 11 c34 7 57 7 63 1 5 -5 10 -38 10 -74 0 -68
-15 -99 -66 -138 -83 -61 -227 -27 -276 66 -12 22 -17 57 -17 115 l0 82 -53 0
-53 0 0 -47 c1 -284 171 -445 399 -377 104 30 181 139 181 253 -1 87 -61 272
-88 270 -9 0 -77 -12 -149 -27z"/>
<path d="M1077 6133 c-23 -149 -39 -325 -31 -332 5 -5 27 -11 49 -13 l40 -3 7
50 c5 28 13 80 19 116 l10 66 52 -9 c29 -6 54 -11 56 -13 2 -3 -2 -48 -9 -100
-6 -53 -10 -99 -8 -101 3 -2 25 -7 50 -10 l45 -6 14 103 14 104 45 -3 c25 -2
48 -7 52 -10 4 -4 1 -52 -6 -107 -8 -55 -13 -101 -11 -102 1 -2 23 -7 48 -12
l47 -8 5 31 c11 64 44 331 41 333 -3 3 -492 63 -512 63 -6 0 -14 -17 -17 -37z"/>
<path d="M9000 5719 c-113 -10 -218 -18 -234 -18 l-29 -1 6 -61 c3 -33 7 -62
9 -64 1 -2 81 3 177 11 96 8 176 12 178 11 2 -2 -76 -48 -173 -102 l-177 -99
7 -85 c3 -47 8 -87 10 -89 3 -2 122 4 266 14 l262 18 -4 62 c-2 35 -6 65 -8
68 -3 2 -86 -4 -185 -14 -99 -11 -181 -18 -182 -16 -2 2 78 50 178 107 l181
104 -6 59 c-3 32 -6 72 -6 87 0 35 18 34 -270 8z"/>
<path d="M1010 5436 l0 -207 38 7 c20 3 53 9 72 13 l35 7 3 120 3 120 183 -4
184 -4 7 66 c4 37 6 68 4 70 -2 2 -122 7 -266 11 l-263 7 0 -206z"/>
<path d="M1235 5090 l-220 -5 0 -62 c1 -35 2 -119 3 -188 l2 -125 50 0 50 0 0
115 0 115 60 0 60 0 0 -105 0 -105 50 0 50 0 0 110 0 110 49 0 c59 0 61 -4 61
-132 l0 -88 50 0 50 0 0 133 c0 72 -3 156 -6 185 l-7 52 -41 -2 c-23 -1 -140
-5 -261 -8z"/>
<path d="M8750 5025 l0 -75 265 0 265 0 0 75 0 75 -265 0 -265 0 0 -75z"/>
<path d="M8803 4830 c-40 -27 -67 -81 -93 -190 -16 -70 -27 -180 -17 -180 1 0
116 -20 256 -45 140 -24 257 -42 261 -40 10 6 33 126 25 133 -3 4 -47 16 -98
27 -102 22 -114 35 -74 80 20 24 34 29 115 38 102 12 93 2 107 110 6 42 4 47
-13 47 -33 0 -211 -39 -234 -51 -17 -9 -23 -9 -26 1 -3 7 -19 29 -37 48 -27
30 -39 36 -86 39 -43 3 -61 -1 -86 -17z m114 -156 c21 -22 25 -32 20 -66 -3
-22 -9 -44 -14 -49 -8 -8 -120 5 -130 15 -9 9 17 80 38 102 29 31 54 30 86 -2z"/>
<path d="M1284 4619 c-22 -5 -65 -24 -95 -42 -125 -75 -157 -266 -63 -376 31
-36 140 -101 170 -101 8 0 14 25 19 71 l7 70 -41 35 c-76 66 -73 152 8 193 51
27 91 27 124 1 42 -33 59 -121 34 -170 -11 -22 -10 -32 12 -82 15 -32 31 -57
37 -58 20 0 78 45 101 78 66 99 16 294 -93 358 -51 30 -148 40 -220 23z"/>
<path d="M8602 4147 c-34 -93 -60 -172 -58 -174 9 -10 480 -173 489 -170 10 3
127 311 127 334 0 13 -67 46 -83 40 -4 -1 -26 -49 -49 -105 -22 -56 -43 -102
-48 -102 -5 0 -29 9 -54 20 l-46 19 35 97 c19 53 34 98 33 99 -22 13 -89 31
-93 26 -2 -5 -18 -46 -35 -91 -17 -45 -33 -86 -35 -91 -6 -8 -95 21 -95 31 0
4 14 46 30 95 17 49 30 94 30 100 0 6 -19 18 -43 27 l-42 15 -63 -170z"/>
<path d="M1623 4144 c-38 -16 -37 -11 -17 -81 9 -30 14 -56 12 -57 -1 -2 -88
-31 -193 -66 -104 -35 -191 -64 -193 -65 -7 -6 33 -127 42 -131 6 -2 97 25
203 60 l192 64 19 -56 c18 -54 21 -57 50 -55 17 2 42 7 56 12 l25 10 -63 188
c-68 205 -69 206 -133 177z"/>
<path d="M8401 3689 c-34 -95 -60 -173 -59 -174 10 -9 490 -176 495 -172 8 8
123 327 123 341 0 15 -79 41 -90 29 -4 -4 -24 -52 -45 -106 -34 -85 -41 -96
-58 -91 -28 9 -87 34 -87 37 0 1 16 44 35 96 19 51 35 95 35 96 0 4 -93 36
-95 32 -1 -1 -17 -44 -36 -94 -19 -53 -39 -93 -47 -93 -22 0 -82 28 -82 39 0
5 14 46 30 91 17 45 30 87 30 95 0 7 -12 18 -27 23 -16 5 -35 13 -44 16 -13 6
-27 -25 -78 -165z"/>
<path d="M1680 3549 c-91 -50 -193 -106 -227 -125 l-63 -35 31 -62 c17 -34 33
-63 34 -65 2 -2 45 18 95 43 101 51 110 50 110 -13 0 -28 -11 -46 -66 -102
l-66 -68 37 -59 c21 -32 40 -60 42 -63 3 -3 15 7 26 21 12 14 48 57 80 94 31
38 57 77 57 86 0 17 3 17 37 2 99 -41 197 26 195 133 -1 69 -114 304 -146 304
-6 0 -85 -41 -176 -91z m185 -89 c8 -16 15 -45 15 -64 0 -69 -78 -85 -121 -25
-33 45 -28 61 26 91 28 15 53 28 57 28 4 0 14 -13 23 -30z"/>
<path d="M8265 3359 c-15 -22 -28 -46 -30 -52 -3 -7 61 -51 144 -102 82 -49
145 -92 140 -94 -11 -3 -312 26 -360 35 -23 4 -30 -3 -72 -72 -26 -42 -46 -78
-45 -79 17 -14 450 -276 453 -273 11 13 67 110 64 112 -2 1 -75 43 -161 92
-86 49 -155 90 -153 92 3 3 301 -23 375 -33 34 -4 36 -2 78 64 23 38 42 73 42
79 0 8 -430 272 -444 272 -3 0 -17 -18 -31 -41z"/>
<path d="M1980 3090 c-65 -31 -108 -67 -141 -118 -108 -170 -18 -356 171 -356
255 0 401 326 207 461 -55 38 -169 44 -237 13z m146 -105 c43 -18 69 -71 59
-124 -9 -48 -78 -116 -127 -125 -117 -22 -186 108 -106 200 54 61 109 77 174
49z"/>
<path d="M7902 2885 c-23 -29 -42 -57 -42 -62 1 -9 389 -317 404 -320 11 -2
101 105 95 111 -5 5 -392 307 -404 317 -7 5 -28 -13 -53 -46z"/>
<path d="M2255 2563 l-177 -196 46 -45 c54 -55 39 -64 187 113 57 68 105 122
107 120 2 -1 -22 -91 -53 -199 -31 -107 -54 -200 -51 -205 3 -5 33 -32 65 -60
l60 -52 168 191 c92 105 169 197 171 204 2 7 -17 29 -41 49 l-43 35 -119 -133
c-66 -74 -120 -133 -122 -131 -2 1 22 85 52 186 30 101 55 189 55 195 0 6 -29
37 -64 68 l-64 56 -177 -196z"/>
<path d="M7698 2684 c-121 -82 -180 -171 -186 -286 -5 -84 19 -140 93 -214 87
-87 192 -102 308 -43 43 22 132 107 181 172 l28 37 -46 53 c-25 28 -72 81
-103 115 l-58 64 -72 -79 -71 -79 29 -32 29 -33 34 26 33 25 36 -43 36 -44
-32 -30 c-44 -42 -69 -53 -117 -53 -51 0 -88 19 -128 64 -95 109 -56 242 92
312 20 10 36 21 36 26 0 8 -48 88 -53 88 -1 0 -32 -21 -69 -46z"/>
<path d="M2755 2149 c-77 -116 -141 -216 -143 -223 -1 -9 77 -69 110 -84 5 -3
247 350 291 425 5 8 -14 27 -52 52 -33 23 -61 41 -63 41 -2 0 -66 -95 -143
-211z"/>
<path d="M7315 2299 c-22 -16 -41 -34 -43 -39 -2 -4 44 -69 102 -144 59 -75
106 -138 106 -142 0 -3 -81 36 -179 87 l-180 92 -70 -54 -70 -53 26 -36 c28
-36 283 -372 290 -379 5 -6 44 16 80 47 l32 27 -90 110 c-50 61 -104 127 -121
148 l-31 39 192 -97 192 -96 67 53 c37 28 68 53 70 54 5 3 -317 408 -326 411
-4 1 -25 -11 -47 -28z"/>
<path d="M3120 2129 c-105 -32 -210 -176 -210 -288 0 -85 61 -191 133 -232 59
-34 169 -33 245 0 28 13 52 26 52 30 0 3 -21 30 -46 59 -45 52 -47 53 -89 46
-88 -13 -145 29 -145 106 0 86 57 140 128 121 42 -12 99 -62 108 -96 4 -15 21
-27 57 -40 29 -10 57 -20 63 -22 14 -5 34 49 34 91 0 17 -9 49 -19 72 -48 106
-206 184 -311 153z"/>
<path d="M6688 1939 c-87 -43 -158 -81 -158 -82 0 -7 233 -452 240 -460 8 -9
44 8 227 105 l113 59 -21 42 c-12 23 -23 43 -24 45 -2 2 -49 -20 -104 -48 -56
-28 -106 -48 -110 -46 -9 6 -45 96 -40 100 2 2 41 22 87 45 45 23 82 46 82 51
0 16 -33 80 -42 80 -5 0 -48 -20 -97 -44 l-88 -45 -22 46 c-12 25 -21 47 -19
48 2 1 42 24 91 50 48 26 87 51 87 56 0 13 -33 79 -39 78 -3 0 -77 -36 -163
-80z"/>
<path d="M3651 1656 c-57 -31 -67 -107 -22 -158 25 -28 36 -33 76 -33 40 0 51
5 76 33 80 89 -25 216 -130 158z"/>
<path d="M4145 1629 c-44 -17 -82 -32 -84 -35 -5 -5 30 -72 45 -85 7 -6 25 -3
49 7 20 8 39 14 40 12 2 -2 -12 -77 -31 -167 -19 -89 -34 -169 -34 -176 0 -12
76 -35 114 -35 15 0 121 479 108 492 -4 4 -35 10 -67 13 -50 4 -73 0 -140 -26z"/>
<path d="M5675 1621 c-56 -15 -94 -41 -119 -84 -25 -41 -39 -105 -23 -106 4
-1 29 -1 57 -1 46 0 50 2 56 28 13 55 50 75 95 52 49 -27 8 -112 -101 -211
-79 -72 -80 -73 -80 -121 l0 -48 185 0 185 0 0 55 0 55 -86 0 -86 0 54 63 c67
76 88 115 88 163 0 50 -36 121 -69 139 -35 18 -117 26 -156 16z"/>
<path d="M4642 1580 c-61 -37 -95 -127 -73 -193 6 -19 25 -47 42 -63 26 -24
38 -29 82 -29 29 0 64 4 79 9 27 8 27 7 18 -25 -5 -18 -20 -43 -32 -57 -21
-22 -29 -23 -88 -19 -36 2 -72 7 -81 11 -13 6 -17 -1 -22 -36 -3 -24 -2 -47 3
-52 6 -6 50 -12 98 -14 126 -6 178 22 221 119 42 95 37 235 -12 303 -44 62
-169 86 -235 46z m115 -75 c51 -36 32 -125 -27 -125 -38 0 -60 24 -60 65 0 24
7 39 26 54 32 25 34 25 61 6z"/>
<path d="M6233 1573 c-36 -7 -73 -59 -73 -103 0 -112 147 -144 195 -43 38 80
-32 164 -122 146z"/>
<path d="M5070 1432 l0 -119 55 10 c63 10 117 3 140 -19 9 -9 15 -33 15 -59 0
-35 -5 -48 -26 -64 -38 -30 -62 -26 -100 15 -31 35 -35 37 -79 31 -26 -4 -50
-9 -55 -12 -14 -8 19 -91 47 -119 65 -66 243 -60 305 10 26 30 39 73 39 135 1
104 -42 149 -151 158 -62 6 -65 7 -68 34 l-3 27 105 0 106 0 0 45 0 45 -165 0
-165 0 0 -118z"/>
</g>
</svg>
