<?xml version="1.0" encoding="utf-8"?>
<!-- Generator: Adobe Illustrator 15.0.1, SVG Export Plug-In . SVG Version: 6.00 Build 0)  -->
<!DOCTYPE svg PUBLIC "-//W3C//DTD SVG 1.1//EN" "http://www.w3.org/Graphics/SVG/1.1/DTD/svg11.dtd">
<svg version="1.1" id="图层_1" xmlns="http://www.w3.org/2000/svg" xmlns:xlink="http://www.w3.org/1999/xlink" x="0px" y="0px"
	 width="320.848px" height="319.053px" viewBox="0 0 320.848 319.053" enable-background="new 0 0 320.848 319.053"
	 xml:space="preserve">
<g>
	<path fill-rule="evenodd" clip-rule="evenodd" fill="#82318E" d="M320.848,160.537L320.848,160.537
		c-0.014-3.763-1.178-7.996-1.178-7.996s0.797-2.899,0.574-5.891c-0.254-3.423-1.531-6.998-1.531-6.998s0.457-3.976-0.125-7.396
		c-0.658-3.866-2.365-7.233-2.365-7.233s0.393-3.062-0.477-6.279c-0.902-3.343-3.066-6.845-3.066-6.845s0.1-3.065-1.039-6.197
		c-1.229-3.375-3.699-6.834-3.699-6.834s-0.084-3.125-1.412-6.037c-1.551-3.4-4.383-6.663-4.383-6.663s-0.379-2.942-1.736-5.313
		c-1.973-3.445-5.156-6.728-5.156-6.728s-0.813-2.869-2.703-5.503c-2.305-3.211-5.771-6.304-5.771-6.304s-0.309-1.96-2.098-4.107
		c-2.424-2.909-6.521-6.24-6.521-6.24s-1.201-2.604-3.531-4.856c-2.484-2.402-6.105-4.461-6.105-4.461
		c-1.469-2.858-3.598-4.771-5.426-6.039c-1.828-1.267-5.607-3.034-5.607-3.034s-1.152-2.254-3.604-3.955
		c-2.994-2.077-7.398-3.675-7.398-3.675c-1.529-2.121-3.059-3.151-5.605-4.625c-2.549-1.473-5.518-2.003-5.996-2.238
		c-0.48-0.236-2.34-2.091-4.947-3.536c-2.607-1.443-7.922-2.459-7.922-2.459s-2.203-2.139-5.268-3.216
		c-3.498-1.229-7.914-1.418-7.914-1.418s-1.895-1.874-4.832-2.646c-3.621-0.95-8.43-0.835-8.43-0.835S193.249,3.216,190,2.539
		c-3.711-0.774-8.406-0.474-8.406-0.474s-3.13-1.432-6.366-1.699c-3.57-0.296-7.278,0.57-7.278,0.57s-2.723-0.889-5.985-0.934
		c-3.613-0.049-7.803,0.746-7.803,0.746s-3.424-0.66-6.688-0.367c-3.546,0.317-6.957,1.589-6.957,1.589s-3.695-0.483-6.843,0.067
		c-3.784,0.663-7.137,2.379-7.137,2.379s-3.485-0.2-6.5,0.607c-3.609,0.966-6.857,2.968-6.857,2.968s-3.645,0.079-6.856,1.275
		c-3.413,1.271-6.405,3.664-6.405,3.664s-2.969-0.228-5.98,1.138c-3.207,1.453-6.468,4.506-6.468,4.506s-2.937,0.237-5.669,1.753
		c-3.415,1.898-6.779,5.161-6.779,5.161s-2.957,0.968-5.508,2.745c-3.073,2.141-5.838,5.158-5.838,5.158s-2.658,0.8-5.025,2.741
		c-2.813,2.307-5.412,5.82-5.412,5.82s-3.042,1.365-5.531,3.833c-2.631,2.609-4.715,6.328-4.715,6.328s-2.619,1.512-4.699,3.96
		c-2.155,2.537-3.775,6.012-3.775,6.012s-2.938,2.179-4.906,4.942c-2.144,3.012-3.329,6.629-3.329,6.629s-2.509,2.229-4.231,5.198
		c-1.885,3.251-2.999,7.268-2.999,7.268s-2.305,2.089-3.679,4.942c-1.537,3.195-2.162,7.193-2.162,7.193s-2.092,2.502-3.226,5.549
		c-1.233,3.315-1.514,7.199-1.514,7.199s-1.983,2.771-2.815,5.953c-0.934,3.57-0.728,7.594-0.728,7.594s-1.749,2.647-2.407,6.009
		c-0.682,3.479-0.274,7.679-0.274,7.679s-1.356,3.171-1.662,6.484c-0.316,3.413,0.417,6.969,0.417,6.969s-0.981,3.61-1.005,7.149
		c-0.024,3.587,0.91,7.103,0.91,7.103s-0.826,3.403-0.496,6.814c0.341,3.524,1.836,7.063,1.836,7.063s-0.656,3.089-0.093,6.348
		c0.608,3.528,2.439,7.245,2.439,7.245s-0.195,3.554,0.622,6.562c0.945,3.474,2.921,6.468,2.921,6.468s-0.093,3.471,0.968,6.471
		c1.307,3.7,3.82,7.076,3.82,7.076s0.047,3.007,1.326,5.723c1.604,3.412,4.515,6.695,4.515,6.695s0.249,3.006,1.753,5.675
		c1.896,3.365,5.141,6.555,5.141,6.555s0.574,3.093,2.378,5.608c2.1,2.931,5.474,5.353,5.474,5.353s0.8,2.893,2.669,5.153
		c2.566,3.106,6.428,5.853,6.428,5.853s0.909,2.407,2.935,4.408c2.709,2.674,6.736,5.142,6.736,5.142s1.263,2.441,3.6,4.344
		c3.01,2.449,7.269,4.5,7.269,4.5s1.724,2.629,4.085,4.258c3.015,2.078,6.83,3.268,6.83,3.268s1.887,2.635,4.723,4.326
		c3.386,2.02,7.821,3.152,7.821,3.152s2.307,2.252,5.043,3.504c3.452,1.578,7.501,2.236,7.501,2.236s2.364,2.162,5.459,3.25
		c3.445,1.209,7.659,1.359,7.659,1.359s2.259,1.973,5.237,2.803c3.694,1.031,8.264,0.961,8.264,0.961s2.12,1.676,4.837,2.156
		c3.872,0.684,8.76,0.242,8.76,0.242s2.531,1.473,5.557,1.752c3.783,0.348,8.232-0.482,8.232-0.482s2.678,1.219,5.938,1.264
		c3.594,0.049,7.802-1.076,7.802-1.076s3.551,0.764,6.742,0.469c3.69-0.338,7.095-1.738,7.095-1.738s3.178,0.758,6.282,0.195
		c3.732-0.674,7.506-2.688,7.506-2.688s2.919,0.482,5.725-0.262c3.793-1.004,7.777-3.314,7.777-3.314s3.416,0.012,6.375-1.09
		c3.443-1.283,6.502-3.707,6.502-3.707s3.098-0.043,6.102-1.426c3.322-1.527,6.586-4.408,6.586-4.408s3.039-0.354,5.713-1.889
		c3.313-1.904,6.4-5.072,6.4-5.072s3.084-0.789,5.395-2.418c3.23-2.281,6-5.625,6-5.625s3.016-0.934,5.408-2.873
		c2.855-2.309,5.172-5.688,5.172-5.688s2.982-1.34,5.209-3.539c2.725-2.689,4.799-6.34,4.799-6.34s2.697-1.559,4.855-4.105
		c2.334-2.76,4.145-6.525,4.145-6.525s2.643-1.771,4.385-4.231c2.123-2.991,3.418-6.774,3.418-6.774s2.467-1.938,4.078-4.699
		c1.986-3.403,3.199-7.768,3.199-7.768s2.219-2.033,3.514-4.814c1.615-3.469,2.377-7.838,2.377-7.838s2.061-2.052,3.139-5.01
		c1.123-3.084,1.264-7.079,1.264-7.079s2.035-2.792,2.936-6.052c1.051-3.802,0.992-8.154,0.992-8.154s1.688-2.106,2.232-5.075
		c0.684-3.719,0.256-8.473,0.256-8.473s1.348-2.609,1.648-5.973c0.32-3.567-0.402-7.903-0.402-7.903
		S320.858,163.432,320.848,160.537L320.848,160.537z"/>
	<path fill-rule="evenodd" clip-rule="evenodd" fill="#FFFFFF" d="M86.262,280.674L86.262,280.674c0,0-3.915-5.442-10.36-6.615
		c0,0-2.292-4.974-9.93-7.74c0,0-1.575-5.396-8.928-8.306c0,0-0.764-4.738-8.354-9.571c0,0-0.86-5.207-7.4-9.898
		c0,0-0.525-5.958-6.446-10.511c0,0,0.334-5.066-5.538-11.401c0,0,0.096-6.85-4.488-11.541c0,0,0.525-7.226-3.533-11.776
		c0,0,1.289-6.192-2.387-11.682c-0.859-1.408,0.525-2.159,0.477-4.034c-0.047-1.878-0.763-6.522-1.957-8.915
		c0,0,2.721-4.833-0.334-12.246c0,0,2.817-4.223,0.859-12.573c0,0,3.151-4.082,1.861-12.34c0,0,3.247-2.58,2.913-11.87
		c0,0,3.58-2.252,4.01-11.73c0,0,4.392-3.002,5.013-11.4c0,0,4.249-1.596,5.92-10.792c0,0,4.822-2.205,6.922-10.04
		c0,0,2.482-1.689,3.915-3.424c1.432-1.736,3.294-4.504,4.01-6.569c0,0,3.246-1.36,5.251-4.035c2.005-2.674,3.199-5.114,3.199-5.114
		s5.538-1.126,9.596-8.304c0,0,5.347-0.375,9.979-7.272c0,0,5.251-0.422,10.599-6.287c0,0,5.824,0.094,11.171-5.583
		c0,0,5.729,0.891,11.649-4.504c0,0,5.204,1.361,12.031-3.472c0,0,4.726,1.923,12.126-2.299c0,0,4.488,1.97,12.557-1.502
		c0,0,3.772,2.721,12.556-0.188c0,0,5.013,2.768,12.27,0.797c0,0,3.82,3.003,12.27,1.877c0,0,3.725,3.8,12.318,2.908
		c0,0,2.291,3.659,11.84,3.895c0,0,1.814,3.753,11.268,4.926c0,0,2.148,4.222,11.076,5.958c0,0,1.91,4.27,10.266,6.709
		c0,0,1.432,4.363,9.5,7.694c0,0,2.148,5.349,9.021,8.445c0,0,0.574,4.458,8.355,9.384c0,0,0.527,4.833,7.4,10.04
		c0,0,0.621,5.865,6.445,10.462c0,0,0.238,6.24,5.539,11.12c0,0-0.574,5.864,4.486,11.541c0,0-0.477,7.272,3.533,11.871
		c0,0-1.432,5.63,2.387,12.199c0,0-1.861,5.489,1.434,12.198c0,0-2.436,5.49,0.334,12.48c0,0-2.721,3.332-0.955,12.668
		c0,0-2.912,3.518-1.814,11.822c0,0-3.389,4.412-2.912,11.824c0,0-3.676,4.129-3.914,12.01c0,0-4.346,3.19-5.061,11.354
		c0,0-4.01,2.487-6.016,10.886c0,0-4.965,3.425-6.684,10.181c0,0-5.49,2.861-7.975,10.088c0,0-4.727,1.406-8.402,8.537
		c0,0,0,0.143-2.1,1.173c-2.102,1.032-5.301,4.131-7.4,7.226c0,0-0.668,0.235-2.818,1.127c-2.146,0.891-5.203,3.331-7.207,6.428
		c0,0-6.018,0.516-10.744,6.475c0,0-5.061-0.469-11.123,5.441c0,0-5.729-0.563-11.744,4.645c0,0-5.396-1.359-11.697,3.473
		c0,0-5.73-1.502-12.365,2.533c0,0-5.014-2.158-12.461,1.359c0,0-4.917-2.438-12.413,0.283c0,0-4.727-2.863-12.461-0.752
		c0,0-3.723-3.096-12.317-1.736c0,0-3.056-3.518-12.175-3.002c0,0-3.533-4.176-11.84-3.941c0,0-3.247-4.41-11.029-5.02
		C97.338,286.727,93.614,281.799,86.262,280.674L86.262,280.674z"/>
	<path fill-rule="evenodd" clip-rule="evenodd" fill="#FFFFFF" d="M316.542,141.979L316.542,141.979
		c1.596,2.809,1.475,6.845,0.102,9.738c-1.359,2.866-7.676,5.487-8.717,5.92c-1.039,0.431-2.313,1.532-2.313,1.532
		c-0.814-1.923-0.668-3.993-0.629-6.636c0.037-2.661,6.42-6.688,8.238-7.769C315.051,143.676,316.542,141.979,316.542,141.979
		L316.542,141.979z"/>
	<path fill-rule="evenodd" clip-rule="evenodd" fill="#FFFFFF" d="M315.356,138.058L315.356,138.058
		c-1.094,2.974-7.148,6.135-8.148,6.656c-0.996,0.52-2.164,1.727-2.164,1.727c-0.984-1.845-1.025-3.918-1.227-6.555
		c-0.201-2.655,5.791-7.221,7.504-8.457c1.725-1.242,3.055-3.062,3.055-3.062C316.219,131.025,316.461,135.056,315.356,138.058
		L315.356,138.058z"/>
	<path fill-rule="evenodd" clip-rule="evenodd" fill="#FFFFFF" d="M313.047,124.838L313.047,124.838
		c-0.822,3.057-6.568,6.733-7.516,7.339c-0.945,0.605-2,1.909-2,1.909c-1.146-1.752-1.375-3.813-1.813-6.423
		c-0.441-2.625,5.117-7.696,6.713-9.076c1.604-1.388,2.766-3.317,2.766-3.317C313.274,117.758,313.879,121.752,313.047,124.838
		L313.047,124.838z"/>
	<path fill-rule="evenodd" clip-rule="evenodd" fill="#FFFFFF" d="M278.475,55.954L278.475,55.954
		c2.947,1.401,5.203,4.775,5.77,7.919c0.561,3.114-3.084,8.821-3.686,9.762c-0.6,0.938-1,2.557-1,2.557
		c-1.789-1.116-2.877-2.893-4.389-5.08c-1.523-2.201,1.354-9.096,2.213-11.007C278.245,58.184,278.475,55.954,278.475,55.954
		L278.475,55.954z"/>
	<path fill-rule="evenodd" clip-rule="evenodd" fill="#FFFFFF" d="M268.303,50.294L268.303,50.294
		c0.705-1.983,0.752-4.224,0.752-4.224c3.051,1.165,5.576,4.352,6.395,7.441c0.811,3.061-2.357,9.036-2.879,10.021
		c-0.521,0.982-0.789,2.628-0.789,2.628c-1.873-0.973-3.102-2.659-4.789-4.719C265.297,59.365,267.604,52.265,268.303,50.294
		L268.303,50.294z"/>
	<path fill-rule="evenodd" clip-rule="evenodd" fill="#FFFFFF" d="M258.524,41.362L258.524,41.362
		c0.543-2.032,0.41-4.269,0.41-4.269c3.137,0.925,5.908,3.907,6.973,6.922c1.055,2.988-1.625,9.189-2.064,10.213
		c-0.441,1.02-0.576,2.68-0.576,2.68c-1.945-0.824-3.307-2.41-5.154-4.333C256.254,50.638,257.985,43.381,258.524,41.362
		L258.524,41.362z"/>
	<path fill-rule="evenodd" clip-rule="evenodd" fill="#FFFFFF" d="M247.721,29.164L247.721,29.164
		c3.213,0.621,6.266,3.322,7.625,6.222c1.346,2.873-0.703,9.301-1.043,10.362c-0.338,1.057-0.305,2.722-0.305,2.722
		c-2.02-0.633-3.533-2.081-5.559-3.819c-2.043-1.75-1.039-9.137-0.703-11.199C248.075,31.378,247.721,29.164,247.721,29.164
		L247.721,29.164z"/>
	<path fill-rule="evenodd" clip-rule="evenodd" fill="#FFFFFF" d="M244.311,27.747L244.311,27.747
		c1.564,2.764,0.016,9.327-0.238,10.409c-0.256,1.08-0.096,2.738-0.096,2.738c-2.063-0.481-3.682-1.811-5.838-3.394
		c-2.17-1.592-1.742-9.032-1.566-11.114c0.178-2.092-0.344-4.274-0.344-4.274C239.479,22.49,242.733,24.957,244.311,27.747
		L244.311,27.747z"/>
	<path fill-rule="evenodd" clip-rule="evenodd" fill="#FFFFFF" d="M232.282,21.075L232.282,21.075
		c1.824,2.607,0.916,9.284,0.766,10.386c-0.148,1.099,0.17,2.734,0.17,2.734c-2.098-0.287-3.84-1.461-6.139-2.835
		c-2.314-1.383-2.605-8.83-2.631-10.917c-0.025-2.101-0.756-4.223-0.756-4.223C226.965,16.293,230.442,18.446,232.282,21.075
		L232.282,21.075z"/>
	<path fill-rule="evenodd" clip-rule="evenodd" fill="#FFFFFF" d="M219.905,15.331L219.905,15.331
		c2.025,2.46,1.645,9.187,1.582,10.296c-0.063,1.106,0.385,2.713,0.385,2.713c-2.117-0.126-3.945-1.165-6.344-2.36
		c-2.416-1.203-3.293-8.605-3.482-10.686c-0.189-2.092-1.086-4.153-1.086-4.153C214.229,10.966,217.864,12.849,219.905,15.331
		L219.905,15.331z"/>
	<path fill-rule="evenodd" clip-rule="evenodd" fill="#FFFFFF" d="M207.233,10.85L207.233,10.85
		c2.221,2.289,2.402,9.023,2.432,10.134c0.029,1.108,0.607,2.674,0.607,2.674c-2.119,0.043-4.025-0.845-6.518-1.843
		c-2.508-1.006-3.998-8.313-4.359-10.37c-0.365-2.07-1.428-4.052-1.428-4.052C201.209,6.957,204.991,8.54,207.233,10.85
		L207.233,10.85z"/>
	<path fill-rule="evenodd" clip-rule="evenodd" fill="#FFFFFF" d="M193.928,7.292L193.928,7.292
		c2.445,2.058,3.318,8.739,3.461,9.841c0.144,1.1,0.881,2.599,0.881,2.599c-2.104,0.254-4.094-0.44-6.674-1.186
		c-2.6-0.751-4.832-7.874-5.404-9.885c-0.574-2.022-1.838-3.889-1.838-3.889C187.537,4.018,191.459,5.217,193.928,7.292
		L193.928,7.292z"/>
	<path fill-rule="evenodd" clip-rule="evenodd" fill="#FFFFFF" d="M180.456,4.936L180.456,4.936
		c2.629,1.825,4.131,8.398,4.377,9.482c0.246,1.081,1.123,2.508,1.123,2.508c-2.071,0.444-4.117-0.064-6.758-0.572
		c-2.658-0.51-5.555-7.398-6.314-9.348c-0.764-1.963-2.197-3.705-2.197-3.705C173.782,2.257,177.803,3.094,180.456,4.936
		L180.456,4.936z"/>
	<path fill-rule="evenodd" clip-rule="evenodd" fill="#FFFFFF" d="M166.971,3.791L166.971,3.791
		c2.763,1.646,4.763,8.057,5.093,9.115c0.329,1.054,1.312,2.412,1.312,2.412c-2.033,0.566-4.114,0.187-6.789-0.155
		c-2.693-0.343-6.109-6.981-7.016-8.864c-0.911-1.895-2.477-3.531-2.477-3.531C160.105,1.546,164.182,2.129,166.971,3.791
		L166.971,3.791z"/>
	<path fill-rule="evenodd" clip-rule="evenodd" fill="#FFFFFF" d="M153.193,3.664L153.193,3.664c2.919,1.35,5.588,7.632,6.03,8.668
		c0.438,1.034,1.559,2.299,1.559,2.299c-1.958,0.813-4.065,0.669-6.757,0.635c-2.709-0.036-6.811-6.382-7.911-8.19
		c-1.108-1.819-2.836-3.3-2.836-3.3C146.137,2.183,150.247,2.302,153.193,3.664L153.193,3.664z"/>
	<path fill-rule="evenodd" clip-rule="evenodd" fill="#FFFFFF" d="M139.72,4.905L139.72,4.905c3.027,1.095,6.242,7.126,6.772,8.121
		c0.529,0.992,1.757,2.157,1.757,2.157c-1.879,0.976-3.99,1.013-6.675,1.209c-2.703,0.196-7.349-5.777-8.606-7.484
		c-1.265-1.717-3.116-3.045-3.116-3.045C132.559,4.034,136.664,3.799,139.72,4.905L139.72,4.905z"/>
	<path fill-rule="evenodd" clip-rule="evenodd" fill="#FFFFFF" d="M126.136,7.384L126.136,7.384c3.119,0.811,6.895,6.52,7.517,7.462
		c0.622,0.938,1.955,1.985,1.955,1.985c-1.777,1.145-3.876,1.376-6.53,1.818c-2.672,0.443-7.868-5.075-9.282-6.659
		c-1.422-1.593-3.393-2.744-3.393-2.744C118.925,7.176,122.989,6.565,126.136,7.384L126.136,7.384z"/>
	<path fill-rule="evenodd" clip-rule="evenodd" fill="#FFFFFF" d="M113.139,10.974L113.139,10.974
		c3.167,0.601,7.333,6.041,8.02,6.938c0.686,0.895,2.089,1.849,2.089,1.849c-1.694,1.263-3.771,1.635-6.389,2.254
		c-2.634,0.625-8.203-4.532-9.724-6.017c-1.53-1.494-3.577-2.51-3.577-2.51C105.929,11.252,109.941,10.368,113.139,10.974
		L113.139,10.974z"/>
	<path fill-rule="evenodd" clip-rule="evenodd" fill="#FFFFFF" d="M99.846,15.542L99.846,15.542c3.198,0.264,7.983,5.23,8.772,6.049
		c0.788,0.816,2.291,1.617,2.291,1.617c-1.513,1.429-3.515,2.015-6.018,2.904c-2.521,0.893-8.653-3.643-10.338-4.958
		c-1.695-1.323-3.839-2.117-3.839-2.117C92.772,16.569,96.619,15.274,99.846,15.542L99.846,15.542z"/>
	<path fill-rule="evenodd" clip-rule="evenodd" fill="#FFFFFF" d="M87.681,21.583L87.681,21.583
		c3.211,0.069,8.346,4.573,9.193,5.315c0.844,0.74,2.402,1.424,2.402,1.424c-1.407,1.464-3.363,2.145-5.798,3.146
		c-2.451,1.007-8.9-3.005-10.677-4.174c-1.787-1.175-3.985-1.815-3.985-1.815C80.693,22.983,84.439,21.512,87.681,21.583
		L87.681,21.583z"/>
	<path fill-rule="evenodd" clip-rule="evenodd" fill="#FFFFFF" d="M75.854,28.343L75.854,28.343c3.204-0.239,8.76,3.753,9.676,4.412
		c0.914,0.656,2.532,1.188,2.532,1.188c-1.255,1.592-3.135,2.457-5.459,3.685c-2.34,1.237-9.156-2.141-11.04-3.134
		c-1.895-0.999-4.146-1.427-4.146-1.427C69.04,30.404,72.621,28.583,75.854,28.343L75.854,28.343z"/>
	<path fill-rule="evenodd" clip-rule="evenodd" fill="#FFFFFF" d="M64.606,36.077L64.606,36.077
		c3.169-0.519,9.064,2.971,10.037,3.546c0.971,0.574,2.63,0.961,2.63,0.961c-1.106,1.696-2.899,2.722-5.103,4.149
		c-2.218,1.437-9.313-1.33-11.28-2.154c-1.979-0.83-4.259-1.058-4.259-1.058C58.005,38.728,61.407,36.6,64.606,36.077L64.606,36.077
		z"/>
	<path fill-rule="evenodd" clip-rule="evenodd" fill="#FFFFFF" d="M54.021,44.922L54.021,44.922c3.108-0.795,9.3,2.158,10.321,2.646
		c1.019,0.486,2.708,0.725,2.708,0.725c-0.946,1.786-2.639,2.967-4.703,4.583c-2.078,1.626-9.397-0.501-11.431-1.148
		c-2.046-0.651-4.338-0.677-4.338-0.677C47.689,48.146,50.883,45.725,54.021,44.922L54.021,44.922z"/>
	<path fill-rule="evenodd" clip-rule="evenodd" fill="#FFFFFF" d="M44.534,54.513L44.534,54.513
		c3.018-1.082,9.467,1.281,10.53,1.671c1.061,0.388,2.765,0.469,2.765,0.469c-0.77,1.866-2.341,3.199-4.239,5.001
		c-1.911,1.813-9.403,0.376-11.491-0.077c-2.1-0.458-4.384-0.271-4.384-0.271C38.542,58.312,41.488,55.605,44.534,54.513
		L44.534,54.513z"/>
	<path fill-rule="evenodd" clip-rule="evenodd" fill="#FFFFFF" d="M35.748,65.061L35.748,65.061
		c2.91-1.336,9.544,0.465,10.639,0.762c1.091,0.296,2.796,0.23,2.796,0.23c-0.601,1.925-2.047,3.388-3.779,5.345
		c-1.744,1.97-9.334,1.182-11.454,0.908c-2.133-0.275-4.392,0.107-4.392,0.107C30.116,69.359,32.811,66.409,35.748,65.061
		L35.748,65.061z"/>
	<path fill-rule="evenodd" clip-rule="evenodd" fill="#FFFFFF" d="M27.961,76.134L27.961,76.134
		c2.784-1.574,9.549-0.332,10.666-0.126c1.113,0.204,2.806-0.002,2.806-0.002c-0.432,1.967-1.748,3.545-3.305,5.64
		c-1.567,2.108-9.198,1.955-11.334,1.857c-2.148-0.097-4.367,0.473-4.367,0.473C22.719,80.885,25.15,77.723,27.961,76.134
		L27.961,76.134z"/>
	<path fill-rule="evenodd" clip-rule="evenodd" fill="#FFFFFF" d="M21.104,87.952L21.104,87.952
		c2.656-1.776,9.498-1.04,10.627-0.917c1.125,0.121,2.797-0.21,2.797-0.21c-0.28,1.994-1.471,3.665-2.862,5.868
		c-1.401,2.219-9.022,2.631-11.16,2.694c-2.149,0.063-4.317,0.794-4.317,0.794C16.243,93.079,18.424,89.745,21.104,87.952
		L21.104,87.952z"/>
	<path fill-rule="evenodd" clip-rule="evenodd" fill="#FFFFFF" d="M15.516,100.34L15.516,100.34
		c2.462-2.027,9.345-1.963,10.48-1.953c1.132,0.011,2.763-0.484,2.763-0.484c-0.076,2.012-1.092,3.792-2.252,6.12
		c-1.168,2.345-8.71,3.502-10.831,3.773c-2.133,0.273-4.216,1.213-4.216,1.213C11.2,105.917,13.031,102.387,15.516,100.34
		L15.516,100.34z"/>
	<path fill-rule="evenodd" clip-rule="evenodd" fill="#FFFFFF" d="M10.896,112.853L10.896,112.853
		c2.319-2.184,9.191-2.571,10.324-2.636c1.13-0.063,2.724-0.664,2.724-0.664c0.06,2.014-0.832,3.854-1.833,6.255
		c-1.006,2.416-8.454,4.064-10.551,4.475c-2.109,0.412-4.124,1.488-4.124,1.488C6.968,118.701,8.556,115.058,10.896,112.853
		L10.896,112.853z"/>
	<path fill-rule="evenodd" clip-rule="evenodd" fill="#FFFFFF" d="M7.182,126.232L7.182,126.232
		c2.022-2.452,8.791-3.682,9.907-3.885c1.113-0.202,2.618-0.994,2.618-0.994c0.316,1.989-0.334,3.926-1.021,6.431
		c-0.691,2.521-7.869,5.071-9.897,5.737c-2.041,0.667-3.902,1.982-3.902,1.982C4.029,132.517,5.14,128.707,7.182,126.232
		L7.182,126.232z"/>
	<path fill-rule="evenodd" clip-rule="evenodd" fill="#FFFFFF" d="M5.101,139.521L5.101,139.521
		c1.822-2.601,8.471-4.345,9.568-4.633c1.093-0.287,2.531-1.191,2.531-1.191c0.473,1.959-0.021,3.939-0.507,6.489
		c-0.489,2.566-7.443,5.661-9.412,6.479c-1.98,0.823-3.732,2.276-3.732,2.276C2.457,146.029,3.262,142.145,5.101,139.521
		L5.101,139.521z"/>
	<path fill-rule="evenodd" clip-rule="evenodd" fill="#FFFFFF" d="M3.884,153.135L3.884,153.135
		c1.607-2.732,8.096-4.987,9.167-5.359c1.067-0.371,2.428-1.383,2.428-1.383c0.628,1.917,0.294,3.93,0.015,6.508
		c-0.282,2.596-6.965,6.219-8.863,7.187c-1.909,0.974-3.538,2.559-3.538,2.559C1.77,159.827,2.261,155.894,3.884,153.135
		L3.884,153.135z"/>
	<path fill-rule="evenodd" clip-rule="evenodd" fill="#FFFFFF" d="M3.983,176.25L3.983,176.25c-1.553-2.701-1.393-6.661-0.005-9.542
		c1.374-2.854,7.653-5.624,8.688-6.08c1.033-0.457,2.303-1.575,2.303-1.575c0.787,1.859,0.622,3.892,0.56,6.485
		c-0.064,2.609-6.422,6.759-8.233,7.876C5.475,174.541,3.983,176.25,3.983,176.25L3.983,176.25z"/>
	<path fill-rule="evenodd" clip-rule="evenodd" fill="#FFFFFF" d="M5.253,180.19L5.253,180.19c1.077-2.974,7.043-6.345,8.028-6.902
		c0.981-0.554,2.132-1.792,2.132-1.792c0.972,1.772,1.014,3.812,1.214,6.397c0.202,2.603-5.704,7.355-7.392,8.645
		c-1.698,1.297-3.009,3.146-3.009,3.146C4.408,187.147,4.166,183.19,5.253,180.19L5.253,180.19z"/>
	<path fill-rule="evenodd" clip-rule="evenodd" fill="#FFFFFF" d="M7.607,193.433L7.607,193.433
		c0.878-3.037,6.608-6.784,7.553-7.403c0.943-0.615,2.009-1.924,2.009-1.924c1.087,1.706,1.265,3.738,1.637,6.306
		c0.374,2.584-5.204,7.706-6.803,9.1c-1.607,1.405-2.793,3.332-2.793,3.332C7.226,200.428,6.721,196.497,7.607,193.433
		L7.607,193.433z"/>
	<path fill-rule="evenodd" clip-rule="evenodd" fill="#FFFFFF" d="M13.599,215.679L13.599,215.679
		c-2.211-2.218-3.095-6.085-2.512-9.218c0.578-3.105,5.916-7.375,6.796-8.079c0.878-0.702,1.812-2.105,1.812-2.105
		c1.249,1.598,1.624,3.604,2.244,6.125c0.624,2.536-4.429,8.159-5.885,9.698C14.59,213.647,13.599,215.679,13.599,215.679
		L13.599,215.679z"/>
	<path fill-rule="evenodd" clip-rule="evenodd" fill="#FFFFFF" d="M305.024,218.012L305.024,218.012
		c-2.469,2.099-9.447,2.011-10.611,1.995c-1.164-0.014-2.85,0.503-2.85,0.503c0.098-2.129,1.162-3.998,2.375-6.432
		c1.211-2.434,8.818-3.521,10.93-3.768s4.158-1.173,4.158-1.173C309.292,212.301,307.493,215.912,305.024,218.012L305.024,218.012z"
		/>
	<path fill-rule="evenodd" clip-rule="evenodd" fill="#FFFFFF" d="M309.797,205.007L309.797,205.007
		c-2.314,2.262-9.285,2.641-10.447,2.706c-1.162,0.063-2.809,0.693-2.809,0.693c-0.049-2.131,0.883-4.066,1.92-6.576
		c1.041-2.51,8.557-4.107,10.645-4.495s4.066-1.451,4.066-1.451C313.657,199.023,312.114,202.747,309.797,205.007L309.797,205.007z"
		/>
	<path fill-rule="evenodd" clip-rule="evenodd" fill="#FFFFFF" d="M313.342,191.984L313.342,191.984
		c-2.055,2.494-8.941,3.611-10.09,3.797c-1.146,0.186-2.715,0.988-2.715,0.988c-0.283-2.114,0.43-4.137,1.188-6.743
		c0.758-2.604,8.053-4.991,10.086-5.599c2.033-0.606,3.883-1.872,3.883-1.872C316.52,185.625,315.397,189.49,313.342,191.984
		L313.342,191.984z"/>
	<path fill-rule="evenodd" clip-rule="evenodd" fill="#FFFFFF" d="M315.5,178.727L315.5,178.727
		c-1.889,2.616-8.691,4.156-9.826,4.413c-1.133,0.257-2.646,1.154-2.646,1.154c-0.418-2.091,0.164-4.156,0.754-6.803
		s7.717-5.477,9.707-6.209c1.992-0.731,3.758-2.109,3.758-2.109C318.266,172.184,317.391,176.111,315.5,178.727L315.5,178.727z"/>
	<path fill-rule="evenodd" clip-rule="evenodd" fill="#FFFFFF" d="M316.588,165.293L316.588,165.293
		c-1.605,2.74-8.127,4.82-9.203,5.165c-1.072,0.342-2.436,1.331-2.436,1.331c-0.643-1.984-0.318-4.035-0.051-6.664
		c0.271-2.648,6.98-6.123,8.887-7.047c1.916-0.93,3.549-2.495,3.549-2.495C318.68,158.514,318.208,162.524,316.588,165.293
		L316.588,165.293z"/>
	<path fill-rule="evenodd" clip-rule="evenodd" fill="#82318E" d="M233.879,55.539L233.879,55.539c0,0,1.42-0.233,1.895,0
		c0.473,0.232,2.051,1.783,3.629,1.473c1.578-0.311,2.209-1.086,2.367-2.637c0.158-1.55-1.656-1.706-1.656-1.706
		s-2.762-1.473-3.236-1.628c-0.473-0.155-0.631-0.853-1.814-0.62s-1.262,0.31-1.578,1.163
		C233.17,52.438,232.381,54.375,233.879,55.539L233.879,55.539z"/>
	<path fill-rule="evenodd" clip-rule="evenodd" fill="#82318E" d="M170.041,46.313L170.041,46.313
		c1.263,0.388,7.181,0.698,7.969,0.698c0.789,0,7.182,0.775,7.418,1.706c0.237,0.931-1.262,1.706-2.604,1.551
		c-1.341-0.155-3.471-1.241-6.312-1.551s-5.918,0-5.998,1.241c-0.079,1.24,1.5,2.016,2.209,2.171
		c0.711,0.155,5.209-0.698,10.259,1.938c0,0-1.026,4.729-0.71,5.426c0.315,0.698,1.735,0.698,2.13,0.233
		c0.396-0.466,1.026-1.628,1.421-3.412c0.395-1.783,1.026-1.24,1.499-1.085c0.474,0.154,2.052,1.472,5.444,1.783
		c3.395,0.31,4.578,0.853,5.209-0.62c0.632-1.474-1.42-2.017-2.052-2.171c-0.632-0.155-2.92-0.465-4.655-1.241
		c-1.736-0.775-3.314-1.55-3.314-2.093s0.473-1.085,1.025-1.008c0.553,0.078,4.893,0.931,7.654,2.87
		c2.762,1.937,6.156,3.101,7.182,3.023c1.025-0.078,2.998-1.086,3.471-2.481c0.475-1.396-1.734-2.636-2.682-3.101
		s-1.658-0.543-2.762-0.621c-1.105-0.078-4.184-0.93-5.051-1.396c-0.868-0.465-1.184-0.698-0.868-1.627
		c0.315-0.93,1.657-0.233,2.131-0.233c0.473,0,1.499,1.163,2.761,0.311c1.264-0.854,1.105-1.783,0.475-2.326
		s-0.947-1.008-1.105-1.629c-0.158-0.62-0.709-1.86-1.498-2.248c0,0,1.736-1.085,1.814-2.713c0,0-0.236-0.388-1.42-0.697
		c-1.184-0.311-1.422-1.474-0.868-1.318c0.552,0.155,3.944,1.86,4.577,1.085c0.631-0.776,1.104-2.171,0.314-2.791
		c-0.789-0.621-2.682-1.862-4.418-2.172c0,0,0.473-2.558-0.316-3.023c-0.789-0.465-1.184-0.775-1.736-0.155
		c-0.552,0.62-1.184,2.015-2.367,2.171c-1.184,0.155-2.762-1.085-3.866-1.241c-1.104-0.155-2.368-0.31-3.078-0.775
		c-0.71-0.465-0.395-1.706-0.946-1.938c-0.553-0.233-1.578-0.698-2.604,0.309c-1.026,1.008-1.736,0.466-2.367,0.466
		c-0.632,0-3.867-0.543-4.578,0.542c-0.71,1.086-1.184,2.171-0.08,3.722c0,0,1.263,0.31,1.974,0.31c0.709,0,3.473,0,2.92,0.698
		c-0.553,0.697-3.551,0.387-3.551,0.387s-0.71,0.699-0.158,2.016c0.552,1.318,0.631,1.086,1.499,1.164
		c0.869,0.077,1.342,0.154,0.552,1.007c-0.789,0.854-2.208,0.311-2.998,0.311c-0.789,0-2.841-0.388-3.236,1.163
		c-0.395,1.551,0.79,3.101,1.579,3.256c0.789,0.156,2.525-0.62,2.525-0.155c0,0.466,0.237,1.163-1.026,1.086
		s-5.839-1.24-6.708-1.318c-0.868-0.078-2.367,0.155-2.683,1.628C167.121,44.918,168.777,45.926,170.041,46.313L170.041,46.313z"/>
	<path fill-rule="evenodd" clip-rule="evenodd" fill="#FFFFFF" d="M194.792,38.576L194.792,38.576
		c0.515,0.147,1.284,0.758,1.179,1.388c-0.107,0.631-1.179,1.095-1.756,1.347c-0.578,0.252-1.285,0.379-1.499,0.778
		c-0.215,0.4-0.086,1.136,0.406,1.368c0.493,0.231,0.771,0.947,0.621,1.452c-0.149,0.504-1.35,1.01-2.335,1.01
		c-0.984,0-1.691-0.631-1.927-1.032c-0.235-0.4,0.321-2.209,0.601-3.071c0.277-0.864,1.563-3.43,1.563-3.43
		C192.288,37.902,194.279,38.428,194.792,38.576L194.792,38.576z"/>
	<path fill-rule="evenodd" clip-rule="evenodd" fill="#FFFFFF" d="M186.217,33.055L186.217,33.055
		c0.789-0.93,4.42,0.311,5.762,0.932c1.341,0.619,0.709,1.085,0.157,1.085c-0.554,0-1.026-0.233-2.525-0.388
		c-1.499-0.155-3.315-1.24-3.315-1.24C186.108,33.301,186.217,33.055,186.217,33.055L186.217,33.055z"/>
	<path fill-rule="evenodd" clip-rule="evenodd" fill="#FFFFFF" d="M180.661,43.374L180.661,43.374
		c0.406-0.485,0.834-0.632,1.412-0.737s2.1-0.589,2.42-1.536c0.321-0.947,0.321-1.662-0.172-1.999
		c-0.492-0.337-1.306-0.968-0.941-1.642c0.363-0.673,1.007-0.673,2.912-0.379c0,0,1.349,0.063,1.285,0.758
		c-0.064,0.694-0.557,5.386-2.078,6.249c-1.134,0.484-3.639,0-3.639,0S180.252,43.857,180.661,43.374L180.661,43.374z"/>
	<path fill-rule="evenodd" clip-rule="evenodd" fill="#82318E" d="M229.54,61.276L229.54,61.276c0.553,0,2.447-0.233,3.156-0.388
		c0.711-0.155,0.869,0.233,1.184,0.388c0.316,0.155,0.631,0.31,1.814-0.311c1.184-0.62,1.422-1.706,0.158-2.48
		c-1.262-0.776-0.867,0.388-2.445-0.543c-1.578-0.93-1.658-1.395-3.473-1.706c0,0-0.867-0.697-1.42,0.311s-0.947,2.791-0.553,3.566
		C228.356,60.888,228.987,61.276,229.54,61.276L229.54,61.276z"/>
	<path fill-rule="evenodd" clip-rule="evenodd" fill="#82318E" d="M113.541,48.793L113.541,48.793
		c1.341-0.232,2.683-2.326,4.182-3.411c1.5-1.085,4.262-2.946,4.735-2.249c0.474,0.698,1.263,4.807-0.315,8.218
		c-1.578,3.411-3.63,5.04-4.971,5.272c-1.342,0.233-3.078,1.551-2.92,2.326c0.158,0.776,0.868,3.102,1.104,3.721
		c0.237,0.621,0.631,1.319,2.999,0.853c2.367-0.465,4.577-1.473,5.287-3.411c0.71-1.938,2.209-4.264,2.604-11.087
		c-0.395-4.651,2.447-2.016,2.447-2.016s9.548,6.823,13.573,6.9c4.024,0.078,6.313-0.853,8.285-5.582
		c0.631-1.473-0.395-1.55-1.025-1.396c-0.632,0.156-10.811-1.085-17.045-3.411c-6.234-2.326-3.629-3.566-2.683-3.799
		c1.104-0.387,7.023-1.551,7.576-1.938c0.552-0.388,2.13-2.093,1.263-4.187c-0.868-2.093-1.026-1.861-2.525-1.551
		c-1.5,0.311-6.155,1.396-6.944,2.017s-1.894,1.706-2.762,1.783c-0.868,0.078-2.13,0.543-2.604-0.62
		c-0.474-1.163-0.553-4.729-1.5-4.729s-2.604,0.388-3.472,2.016c0,0,0.946,4.031,1.183,5.117c0,0,0.079,0.775-2.131,1.86
		c-2.209,1.085-5.365,2.558-6.234,2.869c-0.868,0.309-2.209,1.861-1.973,3.102C109.91,46.701,112.199,49.026,113.541,48.793
		L113.541,48.793z"/>
	<path fill-rule="evenodd" clip-rule="evenodd" fill="#82318E" d="M73.526,60.923L73.526,60.923
		c1.017-0.105,1.499-0.211,1.285,0.157c-0.214,0.368-0.588,2.104,0.321,2.104c0.91,0,2.195-0.052,2.356,0.053
		c0.16,0.105,0.589,0.736,0.856,1.788c0.268,1.052,0.428,2.208,0,2.841c-0.428,0.63-11.831,14.411-11.831,14.411
		s-0.75,0.368-1.285,0.579c-0.536,0.21-0.91,0.578-0.91,1.577c0,1-0.054,2.315,1.178,2.525c1.231,0.211,2.409,0.264,3.105,0.158
		c0,0,4.068,2.156,4.871,3.366s1.285,1.999,2.034,1.893c0.75-0.105,1.232-0.263,1.071-2.314c-0.161-2.051-1.981-3.156-2.677-3.628
		c-0.696-0.474-3.373-2.052-3.693-2.21c-0.322-0.157-0.107-1.367,0.375-1.84c0.482-0.473,3.641-5.365,4.229-5.312
		c0.589,0.053,0.75,0.473,0.642,0.894c-0.106,0.42-0.214,2.787,1.178,2.629c1.392-0.158,1.339-0.42,2.088-1.683
		c0.749-1.262,1.874-1.998,2.249-1.315c0.375,0.684,0.803,1.789,0.375,2.367c-0.429,0.58-2.516,3.051-3.052,3.314
		c-0.535,0.263-1.713,1.315-1.231,1.893c0.481,0.579,1.445,1.473,2.624,1.158c1.177-0.316,1.605-1.158,2.355-2.157
		s2.516-4.471,3.427-4.786c0.91-0.315,2.302-0.474,2.516,1.052c0.268,0.947-5.3,6.102-5.3,6.102s-0.695,1.314,2.088,1.946
		c0,0,2.034-1.63,2.838-1.999c0.802-0.368,1.499-0.788,2.141-1.315c0.643-0.525,2.409-4.522,1.5-5.785
		c-0.91-1.262-1.713-2.998-1.553-4.155c0.161-1.158,1.285-1.315,1.607-1.368c0.321-0.052,1.82-1.736,1.82-2.945
		c0-1.209-0.91-2.209-1.82-2.156c-0.91,0.052-1.66,1.473-1.928,1.893c-0.268,0.421-0.428,1.999-1.285,1.894
		c-0.857-0.105-0.963-1-1.231-1.894c-0.268-0.894-0.375-1.893-1.552-1.893c-1.178,0-2.784,0.893-4.176,2.682
		c-1.392,1.788-2.141,2.84-2.462,3.366c-0.321,0.526-1.286,1.158-1.821,1.052c-0.535-0.105-0.16-0.894,0.161-1.42
		c0.321-0.526,7.174-8.731,7.388-8.889c0.214-0.158,1.82-1.315,3.051-0.894c1.231,0.42,1.553,1.052,2.088,1.63
		c0.536,0.579,1.767,1.683,2.302,1.579c0.535-0.106,2.194-1.474,1.82-2.578c-0.375-1.105-1.66-2.314-2.409-2.893
		c-0.75-0.579-1.66-1.578-1.874-2.315c-0.214-0.736-0.321-1.104-1.124-1.051c-0.803,0.052-2.73,0.473-3.051,0.894
		c-0.322,0.42-2.891,3.628-2.891,3.628s-0.268,0.684-0.963-1.052c-0.696-1.735-1.981-3.577-2.57-3.839
		c-0.589-0.263-1.071-0.263-1.66-0.474c-0.589-0.21-0.696-0.736-0.589-1.21c0.107-0.474-0.857-1.262-1.338-1.368
		c-0.482-0.104-1.767-0.368-2.837,1.263c-1.071,1.631-1.821,2.893-1.071,3.419S72.509,61.028,73.526,60.923L73.526,60.923z"/>
	<polygon fill-rule="evenodd" clip-rule="evenodd" fill="#82318E" points="126.454,270.296 128.177,273.167 131.1,271.917 
		128.702,283.332 132.524,284.066 135.822,268.897 132.599,268.162 126.454,270.296 	"/>
	<path fill-rule="evenodd" clip-rule="evenodd" fill="#FFFFFF" d="M19.242,228.211L19.242,228.211
		c-2.391-2.027-3.605-5.806-3.292-8.978c0.31-3.141,5.264-7.837,6.082-8.61c0.815-0.772,1.625-2.248,1.625-2.248
		c1.381,1.487,1.926,3.455,2.76,5.916c0.839,2.478-3.715,8.496-5.034,10.15C20.057,226.105,19.242,228.211,19.242,228.211
		L19.242,228.211z"/>
	<path fill-rule="evenodd" clip-rule="evenodd" fill="#FFFFFF" d="M27.547,236.164L27.547,236.164
		c-1.16,1.78-1.767,3.952-1.767,3.952c-2.577-1.795-4.15-5.444-4.144-8.629c0.004-3.157,4.483-8.293,5.222-9.141
		c0.736-0.844,1.401-2.388,1.401-2.388c1.518,1.352,2.25,3.26,3.317,5.632C32.652,227.978,28.7,234.394,27.547,236.164
		L27.547,236.164z"/>
	<path fill-rule="evenodd" clip-rule="evenodd" fill="#FFFFFF" d="M34.77,247.528L34.77,247.528
		c-1.011,1.865-1.438,4.078-1.438,4.078c-2.715-1.584-4.581-5.1-4.836-8.275c-0.253-3.146,3.791-8.618,4.458-9.521
		c0.666-0.9,1.201-2.492,1.201-2.492c1.625,1.228,2.511,3.073,3.768,5.352C39.188,238.965,35.774,245.673,34.77,247.528
		L34.77,247.528z"/>
	<path fill-rule="evenodd" clip-rule="evenodd" fill="#FFFFFF" d="M41.888,262.396L41.888,262.396
		c-2.833-1.37-4.973-4.73-5.479-7.878c-0.503-3.115,3.093-8.883,3.686-9.835c0.592-0.946,0.999-2.575,0.999-2.575
		c1.717,1.1,2.747,2.869,4.183,5.046c1.445,2.19-1.425,9.141-2.279,11.066C42.138,260.158,41.888,262.396,41.888,262.396
		L41.888,262.396z"/>
	<path fill-rule="evenodd" clip-rule="evenodd" fill="#FFFFFF" d="M52.167,267.815L52.167,267.815
		c-0.661,2.011-0.686,4.264-0.686,4.264c-2.957-1.091-5.422-4.228-6.243-7.31c-0.812-3.053,2.189-9.14,2.684-10.144
		c0.493-1.002,0.735-2.661,0.735-2.661c1.818,0.929,3.021,2.591,4.668,4.617C54.984,258.623,52.824,265.817,52.167,267.815
		L52.167,267.815z"/>
	<path fill-rule="evenodd" clip-rule="evenodd" fill="#FFFFFF" d="M62.195,276.664L62.195,276.664
		c-0.463,2.064-0.269,4.308-0.269,4.308c-3.049-0.809-5.808-3.7-6.923-6.691c-1.105-2.964,1.292-9.303,1.688-10.35
		c0.394-1.041,0.474-2.716,0.474-2.716c1.9,0.753,3.26,2.295,5.094,4.159C64.107,267.249,62.654,274.612,62.195,276.664
		L62.195,276.664z"/>
	<path fill-rule="evenodd" clip-rule="evenodd" fill="#FFFFFF" d="M72.96,289.232L72.96,289.232c-3.19-0.66-6.251-3.381-7.642-6.297
		c-1.391-2.915,0.617-9.429,0.951-10.515c0.334-1.086,0.288-2.815,0.288-2.815c2.069,0.705,3.618,2.238,5.683,4.072
		c2.065,1.832,1.045,9.274,0.708,11.323C72.611,287.047,72.96,289.232,72.96,289.232L72.96,289.232z"/>
	<path fill-rule="evenodd" clip-rule="evenodd" fill="#FFFFFF" d="M76.419,290.564L76.419,290.564
		c-1.625-2.795-0.161-9.447,0.084-10.556c0.244-1.108,0.056-2.829,0.056-2.829c2.121,0.539,3.791,1.943,5.999,3.607
		c2.209,1.665,1.804,9.163,1.636,11.231s0.361,4.219,0.361,4.219C81.32,295.83,78.044,293.361,76.419,290.564L76.419,290.564z"/>
	<path fill-rule="evenodd" clip-rule="evenodd" fill="#FFFFFF" d="M88.238,297.393L88.238,297.393
		c-1.844-2.662-0.915-9.406-0.761-10.533c0.155-1.123-0.171-2.822-0.171-2.822c2.158,0.371,3.934,1.645,6.269,3.133
		c2.334,1.488,2.53,8.994,2.528,11.068c-0.002,2.074,0.697,4.178,0.697,4.178C93.544,302.262,90.081,300.055,88.238,297.393
		L88.238,297.393z"/>
	<path fill-rule="evenodd" clip-rule="evenodd" fill="#FFFFFF" d="M100.707,303.086L100.707,303.086
		c-2.101-2.471-1.854-9.273-1.813-10.406s-0.454-2.793-0.454-2.793c2.184,0.16,4.08,1.254,6.553,2.508
		c2.473,1.258,3.42,8.707,3.626,10.771c0.207,2.066,1.112,4.09,1.112,4.09C106.477,307.418,102.809,305.557,100.707,303.086
		L100.707,303.086z"/>
	<path fill-rule="evenodd" clip-rule="evenodd" fill="#FFFFFF" d="M113.406,307.629L113.406,307.629
		c-2.295-2.299-2.601-9.098-2.651-10.232c-0.051-1.133-0.678-2.748-0.678-2.748c2.19-0.012,4.168,0.932,6.735,1.988
		c2.566,1.057,4.116,8.41,4.489,10.451c0.373,2.043,1.44,3.99,1.44,3.99C119.508,311.496,115.701,309.926,113.406,307.629
		L113.406,307.629z"/>
	<path fill-rule="evenodd" clip-rule="evenodd" fill="#FFFFFF" d="M126.762,311.137L126.762,311.137
		c-2.517-2.059-3.512-8.795-3.678-9.918s-0.955-2.67-0.955-2.67c2.179-0.225,4.243,0.518,6.905,1.318
		c2.661,0.801,4.95,7.965,5.528,9.961c0.579,1.994,1.839,3.826,1.839,3.826C133.228,314.387,129.28,313.199,126.762,311.137
		L126.762,311.137z"/>
	<path fill-rule="evenodd" clip-rule="evenodd" fill="#FFFFFF" d="M140.125,313.531L140.125,313.531
		c-2.664-1.875-4.157-8.521-4.406-9.629c-0.249-1.107-1.15-2.594-1.15-2.594c2.156-0.381,4.27,0.211,6.984,0.818
		c2.713,0.609,5.528,7.588,6.253,9.537c0.726,1.949,2.118,3.686,2.118,3.686C146.813,316.309,142.788,315.406,140.125,313.531
		L140.125,313.531z"/>
	<path fill-rule="evenodd" clip-rule="evenodd" fill="#FFFFFF" d="M153.648,314.623L153.648,314.623
		c-2.817-1.645-4.883-8.143-5.228-9.225c-0.344-1.082-1.372-2.488-1.372-2.488c2.115-0.561,4.272-0.146,7.029,0.23
		c2.757,0.377,6.169,7.096,7.062,8.975c0.892,1.883,2.431,3.496,2.431,3.496C160.555,316.826,156.466,316.266,153.648,314.623
		L153.648,314.623z"/>
	<path fill-rule="evenodd" clip-rule="evenodd" fill="#FFFFFF" d="M167.351,314.621L167.351,314.621
		c-2.951-1.4-5.576-7.699-6.014-8.75c-0.438-1.049-1.584-2.361-1.584-2.361c2.059-0.736,4.244-0.508,7.023-0.363
		c2.779,0.143,6.766,6.549,7.818,8.346c1.054,1.799,2.729,3.277,2.729,3.277C174.425,316.234,170.301,316.021,167.351,314.621
		L167.351,314.621z"/>
	<path fill-rule="evenodd" clip-rule="evenodd" fill="#FFFFFF" d="M181.08,313.406L181.08,313.406
		c-3.065-1.135-6.25-7.182-6.781-8.189c-0.531-1.008-1.791-2.215-1.791-2.215c1.983-0.912,4.181-0.875,6.962-0.975
		s7.331,5.934,8.542,7.633c1.212,1.699,3.014,3.023,3.014,3.023C188.27,314.396,184.145,314.545,181.08,313.406L181.08,313.406z"/>
	<path fill-rule="evenodd" clip-rule="evenodd" fill="#FFFFFF" d="M194.495,310.883L194.495,310.883
		c-3.156-0.867-6.871-6.613-7.49-7.57s-1.982-2.051-1.982-2.051c1.894-1.082,4.086-1.234,6.848-1.576
		c2.762-0.338,7.834,5.275,9.195,6.863c1.359,1.588,3.271,2.752,3.271,2.752C201.747,311.244,197.649,311.75,194.495,310.883
		L194.495,310.883z"/>
	<path fill-rule="evenodd" clip-rule="evenodd" fill="#FFFFFF" d="M207.743,307.197L207.743,307.197
		c-3.234-0.523-7.564-5.836-8.285-6.723c-0.723-0.885-2.2-1.826-2.2-1.826c1.763-1.275,3.925-1.664,6.634-2.297
		c2.707-0.635,8.373,4.402,9.9,5.834c1.527,1.434,3.559,2.387,3.559,2.387C214.991,306.783,210.975,307.723,207.743,307.197
		L207.743,307.197z"/>
	<path fill-rule="evenodd" clip-rule="evenodd" fill="#FFFFFF" d="M220.522,302.529L220.522,302.529
		c-3.227-0.262-7.975-5.207-8.766-6.029c-0.791-0.824-2.33-1.645-2.33-1.645c1.615-1.416,3.705-1.975,6.309-2.826
		s8.639,3.711,10.271,5.014c1.635,1.305,3.721,2.09,3.721,2.09C227.61,301.527,223.749,302.789,220.522,302.529L220.522,302.529z"/>
	<path fill-rule="evenodd" clip-rule="evenodd" fill="#FFFFFF" d="M232.893,296.658L232.893,296.658
		c-3.275-0.018-8.402-4.596-9.256-5.357c-0.855-0.766-2.465-1.465-2.465-1.465c1.537-1.535,3.609-2.252,6.184-3.295
		c2.57-1.045,8.973,3.055,10.711,4.234c1.736,1.178,3.896,1.805,3.896,1.805C239.987,295.127,236.17,296.678,232.893,296.658
		L232.893,296.658z"/>
	<path fill-rule="evenodd" clip-rule="evenodd" fill="#FFFFFF" d="M244.653,289.83L244.653,289.83
		c-3.26,0.326-8.854-3.693-9.785-4.361c-0.932-0.67-2.607-1.199-2.607-1.199c1.361-1.686,3.346-2.615,5.791-3.92
		c2.445-1.309,9.254,2.1,11.109,3.092c1.855,0.99,4.068,1.389,4.068,1.389C251.54,287.568,247.913,289.508,244.653,289.83
		L244.653,289.83z"/>
	<path fill-rule="evenodd" clip-rule="evenodd" fill="#FFFFFF" d="M255.831,282.16L255.831,282.16
		c-3.211,0.584-9.186-2.963-10.182-3.555c-0.994-0.591-2.717-0.981-2.717-0.981c1.182-1.787,3.063-2.871,5.361-4.368
		c2.299-1.496,9.42,1.349,11.369,2.185c1.945,0.837,4.189,1.057,4.189,1.057C262.452,279.356,259.042,281.577,255.831,282.16
		L255.831,282.16z"/>
	<path fill-rule="evenodd" clip-rule="evenodd" fill="#FFFFFF" d="M266.42,273.276L266.42,273.276
		c-3.143,0.872-9.424-2.123-10.469-2.621c-1.049-0.499-2.799-0.734-2.799-0.734c1.012-1.885,2.781-3.133,4.93-4.831
		c2.15-1.698,9.508,0.492,11.525,1.148c2.018,0.658,4.271,0.673,4.271,0.673C272.752,269.886,269.563,272.405,266.42,273.276
		L266.42,273.276z"/>
	<path fill-rule="evenodd" clip-rule="evenodd" fill="#FFFFFF" d="M276.063,263.778L276.063,263.778
		c-3.049,1.147-9.58-1.274-10.668-1.679c-1.088-0.402-2.854-0.479-2.854-0.479c0.832-1.968,2.479-3.37,4.463-5.253
		c1.984-1.882,9.514-0.356,11.584,0.118c2.07,0.476,4.316,0.289,4.316,0.289C282.055,259.837,279.112,262.63,276.063,263.778
		L276.063,263.778z"/>
	<path fill-rule="evenodd" clip-rule="evenodd" fill="#FFFFFF" d="M284.674,253.303L284.674,253.303
		c-2.939,1.396-9.656-0.474-10.775-0.784c-1.119-0.313-2.885-0.243-2.885-0.243c0.66-2.03,2.182-3.563,3.996-5.604
		s9.449-1.146,11.553-0.845s4.324-0.069,4.324-0.069C290.305,248.88,287.614,251.908,284.674,253.303L284.674,253.303z"/>
	<path fill-rule="evenodd" clip-rule="evenodd" fill="#FFFFFF" d="M292.667,242.087L292.667,242.087
		c-2.777,1.686-9.652,0.502-10.799,0.304c-1.146-0.197-2.896,0.05-2.896,0.05c0.445-2.087,1.799-3.765,3.391-5.977
		c1.592-2.213,9.279-2.093,11.402-2.004c2.125,0.087,4.297-0.507,4.297-0.507C297.807,237.12,295.446,240.401,292.667,242.087
		L292.667,242.087z"/>
	<path fill-rule="evenodd" clip-rule="evenodd" fill="#FFFFFF" d="M299.346,230.228L299.346,230.228
		c-2.664,1.856-9.602,1.105-10.758,0.979c-1.158-0.124-2.887,0.23-2.887,0.23c0.309-2.108,1.551-3.868,2.996-6.176
		s9.125-2.667,11.25-2.712c2.125-0.046,4.254-0.775,4.254-0.775C304.155,224.95,302.008,228.372,299.346,230.228L299.346,230.228z"
		/>
	<polygon fill-rule="evenodd" clip-rule="evenodd" fill="#82318E" points="289.151,161.122 272.887,161.048 272.811,165.466 
		289.075,165.541 289.151,161.122 	"/>
	<polygon fill-rule="evenodd" clip-rule="evenodd" fill="#82318E" points="260.422,238.614 247.654,228.541 244.874,231.975 
		257.642,242.049 260.422,238.614 	"/>
	<polygon fill-rule="evenodd" clip-rule="evenodd" fill="#82318E" points="84.973,262.563 93.973,249.017 90.324,246.526 
		81.323,260.072 84.973,262.563 	"/>
	<polygon fill-rule="evenodd" clip-rule="evenodd" fill="#82318E" points="33.807,127.771 32.374,139.224 35.259,139.634 
		36.36,132.366 40.155,133.003 39.309,139.445 42.177,139.784 43.077,133.252 46.525,133.747 45.736,140.403 48.568,140.903 
		50.001,129.756 33.807,127.771 	"/>
	<polygon fill-rule="evenodd" clip-rule="evenodd" fill="#82318E" points="31.679,161.658 31.926,173.197 34.84,173.184 
		34.873,165.833 38.721,165.912 38.819,172.409 41.706,172.327 41.647,165.734 45.131,165.722 45.318,172.423 48.191,172.506 
		47.991,161.269 31.679,161.658 	"/>
	<polygon fill-rule="evenodd" clip-rule="evenodd" fill="#82318E" points="275.362,215.882 279.29,205.03 276.567,203.992 
		273.887,210.836 270.327,209.377 272.575,203.281 269.853,202.316 267.532,208.488 264.278,207.244 266.518,200.926 
		263.868,199.813 260.006,210.368 275.362,215.882 	"/>
	<polygon fill-rule="evenodd" clip-rule="evenodd" fill="#82318E" points="281.612,201.632 285.54,190.78 282.817,189.742 
		280.137,196.586 276.577,195.127 278.825,189.031 276.103,188.066 273.782,194.238 270.528,192.994 272.768,186.676 
		270.118,185.563 266.256,196.118 281.612,201.632 	"/>
	<polygon fill-rule="evenodd" clip-rule="evenodd" fill="#82318E" points="211.147,276.625 221.395,271.314 220.098,268.705 
		213.487,271.917 211.86,268.429 217.647,265.475 216.301,262.92 210.409,265.881 208.862,262.759 214.793,259.636 213.601,257.021 
		203.604,262.157 211.147,276.625 	"/>
	<polygon fill-rule="evenodd" clip-rule="evenodd" fill="#82318E" points="266.718,231.795 255.894,225.592 269.704,226.905 
		272.465,222.402 258.463,214.042 256.563,217.154 266.921,223.45 253.52,221.997 250.713,226.556 264.629,235.134 266.718,231.795 
			"/>
	<polygon fill-rule="evenodd" clip-rule="evenodd" fill="#82318E" points="67.768,248.939 75.839,239.427 72.033,252.765 
		75.958,256.3 86.728,244.057 84.014,241.622 75.937,250.659 79.807,237.748 75.834,234.157 64.865,246.277 67.768,248.939 	"/>
	<polygon fill-rule="evenodd" clip-rule="evenodd" fill="#82318E" points="230.778,266.886 222.882,257.227 235.313,263.384 
		239.5,260.164 229.407,247.356 226.52,249.583 233.948,259.163 221.95,253.021 217.699,256.277 227.635,269.259 230.778,266.886 	
		"/>
	<polygon fill-rule="evenodd" clip-rule="evenodd" fill="#82318E" points="289.508,152.217 277.094,153.466 289.093,146.502 
		288.721,141.234 272.469,142.577 272.733,146.213 284.821,145.31 273.073,151.922 273.44,157.264 289.75,156.148 289.508,152.217 	
		"/>
	<polygon fill-rule="evenodd" clip-rule="evenodd" fill="#82318E" points="53.399,203.105 56.512,202.2 52.518,190.27 
		49.636,191.374 50.669,195.229 38.391,199.359 39.654,203.414 52.036,199.3 53.399,203.105 	"/>
	<path fill-rule="evenodd" clip-rule="evenodd" fill="#FFFFFF" d="M306.764,102.215L306.764,102.215
		c2.318,2.271,3.33,6.184,2.816,9.337c-0.506,3.123-5.848,7.347-6.729,8.042c-0.879,0.695-1.795,2.096-1.795,2.096
		c-1.32-1.629-1.758-3.659-2.459-6.211c-0.707-2.569,4.305-8.162,5.752-9.691C305.805,104.249,306.764,102.215,306.764,102.215
		L306.764,102.215z"/>
	<path fill-rule="evenodd" clip-rule="evenodd" fill="#FFFFFF" d="M301.311,89.839L301.311,89.839
		c2.461,2.122,3.721,5.966,3.41,9.144c-0.305,3.148-5.365,7.693-6.199,8.444c-0.834,0.747-1.658,2.202-1.658,2.202
		c-1.422-1.544-1.988-3.542-2.852-6.047c-0.871-2.52,3.773-8.411,5.119-10.027C300.485,91.928,301.311,89.839,301.311,89.839
		L301.311,89.839z"/>
	<path fill-rule="evenodd" clip-rule="evenodd" fill="#FFFFFF" d="M292.938,81.552L292.938,81.552
		c1.211-1.731,1.857-3.88,1.857-3.88c2.631,1.914,4.213,5.642,4.174,8.833c-0.037,3.162-4.695,8.106-5.463,8.922
		c-0.766,0.813-1.465,2.332-1.465,2.332c-1.547-1.424-2.281-3.368-3.355-5.793C287.606,89.525,291.735,83.273,292.938,81.552
		L292.938,81.552z"/>
	<path fill-rule="evenodd" clip-rule="evenodd" fill="#FFFFFF" d="M285.715,70.559L285.715,70.559
		c1.063-1.823,1.527-4.017,1.527-4.017c2.781,1.695,4.668,5.284,4.895,8.468c0.227,3.154-4.004,8.457-4.701,9.332
		c-0.695,0.871-1.266,2.44-1.266,2.44c-1.662-1.294-2.555-3.172-3.826-5.503C281.065,78.933,284.659,72.371,285.715,70.559
		L285.715,70.559z"/>
	<path fill-rule="evenodd" clip-rule="evenodd" fill="#82318E" d="M247.54,70.624L247.54,70.624
		c-0.725-0.392-3.398-2.479-4.373-2.97c-0.975-0.491-1.898-1.301-2.473-1.768c-0.574-0.466-1.973-1.104-2.549-1.055
		c-0.574,0.049-1.174,0.417-1.123,1.718c0.049,1.302,0.574,2.431,0.973,2.553c0.4,0.123,1.924,0.933,2.15,1.252
		c0.225,0.319,0.822,1.031-0.201,1.718c-1.025,0.688-2.074,1.276-3.498,1.546s-3.047,0.785-4.322,0.835
		c-1.273,0.049-3.396-0.589-3.871-1.056c-0.475-0.467-1.025,0-1.523,0.344c-0.5,0.343-1.301,0.688-1.1,2.013
		c0.199,1.326,1.924,3.559,3.496,3.78c1.574,0.221,4.322-0.491,5.447-0.123c1.125,0.368,3.572,2.357,5.396,4.762
		s2.123,2.798,1.898,3.166s-2.174,2.406-1.549,3.854c0.625,1.448,1.373,2.135,2.098,1.743c0.727-0.393,1.1-0.957,2.074-2.651
		c0.975-1.693,5.996-8.174,7.096-8.396c1.1-0.221,1.748-0.073,2.799,1.399c1.049,1.473,2.623,4.075,3.371,4.369
		c0.75,0.295,2.623,0.761,2.924,0.884c0.299,0.123,1.424-1.521,1.498-2.087c0.076-0.564,0.15-2.185-0.273-2.332
		c-0.426-0.146-0.926-0.441-1.275-0.392c-0.125-0.024-6.445-6.628-7.67-8.125c-1.223-1.497-1.475-1.62-0.725-1.891
		c0.451-0.269,1.4,0.934,1.5,0.982c0.1,0.05,1.623,1.498,1.748,1.94s0.625,1.153,1.648,0.982c1.025-0.172,1.525-0.884,1.5-1.915
		c-0.025-1.032-0.65-1.989-1.148-2.063c-0.5-0.073-2.199-1.742-2.873-2.43c-0.676-0.688-0.875-1.031-0.326-1.448
		s1.025-0.246,1.25,0.098c0.225,0.344,2.648,4.468,4.598,4.983c1.947,0.515,2.447-0.074,2.848-0.54
		c0.398-0.466,0.674-1.375,0.174-1.669c-0.5-0.295-2.447-1.817-3.422-3.069c-0.975-1.251-2.273-2.97-2.324-3.461
		c0,0,0.35-1.399,0.275-1.939c-0.076-0.541-0.9-0.958-1.75-0.835c-0.848,0.123-1.35,0.589-1.598,0.639
		c-0.25,0.049-0.75-0.663-1.35-1.006c-0.6-0.344-1.225-0.369-1.598-0.908c-0.375-0.54-0.076-1.498-0.35-1.571
		c-0.275-0.074-2.574-0.909-3.123-0.467c-0.551,0.443-1.1,1.547-0.801,2.75c0.301,1.203,0.525,1.596,1.549,1.915
		c1.025,0.319,3.674,1.718,3.523,2.872s-1.674,0.393-2.373,0.172c-0.701-0.221-1.775-1.399-2.375-2.774
		c-0.6-1.374-1.424-0.981-1.848-0.933c-0.426,0.05-1.523,0.074-1.424,1.154c0.1,1.08,0.824,1.006,0.875,1.571
		c0.049,0.565-0.076,0.908,0.398,1.056c0.475,0.147,1.225,0.196,1.75,0.662c0.523,0.467,2.072,1.817,1.873,2.087
		S248.264,71.017,247.54,70.624L247.54,70.624z"/>
	<path fill-rule="evenodd" clip-rule="evenodd" fill="#FFFFFF" d="M241.358,77.902L241.358,77.902
		c-0.518,1.018-2.125,1.052-2.82,1.052s-0.75-1.228-0.588-1.719c0.16-0.491,1.605-1.245,1.605-1.245
		C241.5,75.535,241.875,76.885,241.358,77.902L241.358,77.902z"/>
	<path fill-rule="evenodd" clip-rule="evenodd" fill="#FFFFFF" d="M245.659,84.127L245.659,84.127
		c-0.41,0.28-0.965,0.403-1.072,0.087c-0.107-0.316-0.855-1.122-1.123-1.385c-0.268-0.264-1-0.526-0.857-1.508
		c0.143-0.982,1.16-1.525,1.16-1.525c1.695-0.807,2.873,0.421,3.23,1.806C247.352,82.986,246.069,83.846,245.659,84.127
		L245.659,84.127z"/>
	<path fill-rule="evenodd" clip-rule="evenodd" fill="#FFFFFF" d="M250.03,77.323L250.03,77.323
		c0.125,0.894-0.357,1.246-0.998,1.333c-0.645,0.087-1.5-0.913-1.643-1.263c-0.143-0.351-0.375-0.947-0.607-1.174
		c-0.232-0.228-1.178-0.702-1.73-0.824c-0.553-0.123-0.695-0.105-1.105-0.614c-0.412-0.508-0.732-1.174-0.715-1.859
		c0.018-0.683,0.768-0.929,0.768-0.929c0.5-0.315,1.178-0.035,1.535,0.123c0.355,0.158,2.318,2.455,2.891,2.928
		C248.995,75.518,249.905,76.429,250.03,77.323L250.03,77.323z"/>
	<path fill-rule="evenodd" clip-rule="evenodd" fill="#82318E" d="M221.891,67.988L221.891,67.988
		c1.404,0.736,3.336-0.262,4.156-1.182c0,0,3.838,0.241,4.738-0.161c0.896-0.402,1.879-1.284,1.389-2.167
		c-0.492-0.883-1.145-0.402-1.961-0.481c-0.818-0.081-1.797-0.321-2.369-0.562s-0.98-1.124-1.307-1.204
		c-0.328-0.08-2.609-0.502-3.008-0.294s-2.271,1.771-2.506,2.509C220.79,65.18,220.485,67.25,221.891,67.988L221.891,67.988z"/>
	<path fill-rule="evenodd" clip-rule="evenodd" fill="#82318E" d="M64.961,67.254L64.961,67.254c0.578,0,2.035,0.21,2.249,0.315
		c0.214,0.105,0.364,1.094,0.556,1.411c0.193,0.314,0.557,1.115,1.093,1.093c0.536-0.021,1.306-0.125,1.521,0.106
		c0.214,0.231,1.199,1.747,1.691,2.125c0.493,0.378,1.5,0.147,1.563-0.442c0.064-0.588-0.257-2.293,0.3-2.609
		c0.557-0.316,1.413-0.568,2.034-0.673c0.622-0.105,0.899-0.484,0.793-1.221c-0.108-0.736-0.493-0.925-1.071-0.863
		c-0.578,0.063-1.156,0.337-1.349,0.147c-0.193-0.189-0.514-0.694-0.792-1.178c-0.279-0.483-0.857-0.799-1.349-0.799
		c-0.493,0-1.114-0.042-1.435-0.568c-0.321-0.525-0.471-0.799-0.535-1.304c-0.064-0.505,0.085-1.494-0.857-1.515
		c-0.942-0.021-1.863,0.252-2.162,0.715c-0.3,0.463,0.321,1.178,0.106,1.599c-0.214,0.42-0.536,0.989-0.964,1.115
		c-0.428,0.126-1.413,0.252-1.691,0.189c0,0-0.857,0.757-0.792,1.22C63.933,66.581,64.382,67.254,64.961,67.254L64.961,67.254z"/>
	<path fill-rule="evenodd" clip-rule="evenodd" fill="#FFFFFF" d="M69.351,66.434L69.351,66.434
		c0.792-0.716,2.441-0.085,2.612,0.357c0.171,0.442-0.107,1.114-0.407,1.262c-0.3,0.147-1.007,0.169-1.5-0.083
		S69.215,66.555,69.351,66.434L69.351,66.434z"/>
	<path fill-rule="evenodd" clip-rule="evenodd" fill="#82318E" d="M59.714,74.871L59.714,74.871
		c0.707,0.378,2.698,1.894,3.727,2.672c1.027,0.779,2.333,2.083,3.062,2.252c0.729,0.168,1.713-0.358,2.184-1.411
		c0.471-1.051,1.028-3.45,0.921-4.481c-0.107-1.031-0.707-1.178-1.328-1.136c-0.621,0.042-0.963,1.031-1.135,1.473
		c-0.172,0.441-0.792,0.8-1.178,0.61c-0.386-0.189-0.3-1.052-0.128-1.537c0.172-0.483,0.707-1.283,0.493-1.557
		c-0.813-0.968-1.371-0.894-2.12-0.789c-0.749,0.106-1.285,1.579-1.767,1.789c-0.482,0.21-0.321-0.474-0.107-1.157
		s0.429-1.63,0.375-2.209c-0.054-0.579-1.392-0.946-1.392-0.946s-1.178-0.18-1.692,0.409c-0.514,0.59-1.35,3.22-1.413,4.146
		C58.152,73.923,59.008,74.492,59.714,74.871L59.714,74.871z"/>
	<path fill-rule="evenodd" clip-rule="evenodd" fill="#FFFFFF" d="M81.428,75.018L81.428,75.018
		c0.149-1.031,1.499-1.252,1.499-1.252c0.899-0.222,1.724-0.147,1.724,0.736c0,0.883-1.274,1.767-2.099,1.767
		C81.728,76.27,81.278,76.049,81.428,75.018L81.428,75.018z"/>
	<path fill-rule="evenodd" clip-rule="evenodd" fill="#82318E" d="M267.374,108.106L267.374,108.106
		c1.717,0,3.109-1.368,3.109-3.056c0-1.688-1.393-3.057-3.109-3.057c-1.719,0-3.111,1.369-3.111,3.057
		C264.262,106.738,265.655,108.106,267.374,108.106L267.374,108.106z"/>
	<path fill-rule="evenodd" clip-rule="evenodd" fill="#82318E" d="M50.936,108.106L50.936,108.106c1.717,0,3.109-1.368,3.109-3.056
		c0-1.688-1.393-3.057-3.109-3.057c-1.719,0-3.111,1.369-3.111,3.057C47.824,106.738,49.217,108.106,50.936,108.106L50.936,108.106z
		"/>
	<path fill-rule="evenodd" clip-rule="evenodd" fill="#82318E" d="M149.257,280.535c1.095-3.316-0.47-0.76-2.914-0.824
		c-1.032-0.028-2.298-0.431-3.462-2.088c-0.542-0.773-0.572-1.642-0.553-2.527c0.057-2.553,2.023-5.12,5.08-4.953
		c1.311,0.072,2.97,0.376,4.248,1.792c1.624,1.801,1.412,3.732,1.468,4.989c0.141,3.151-1.271,6.282-2.544,7.186
		c-3.437,2.441-8.29,0.672-8.272,0.508l0.277-2.609c1.385,0.714,2.626,0.882,3.782,0.822
		C147.719,282.762,148.68,282.281,149.257,280.535L149.257,280.535z"/>
	<path fill-rule="evenodd" clip-rule="evenodd" fill="#82318E" d="M243.757,237.726l-1.635-2.633c0,0-4.007,2.144-5.798,4.516
		c-2.402,3.181-2.708,6.312-1.696,8.835c0.548,1.37,1.65,2.707,2.845,3.879c0.777,0.763,1.713,1.187,3.394,1.729
		c0.245,0.081,4.427,1.433,9.217-3.795c2.74-2.992,2.882-3.661,2.882-3.661l-6.295-6.828l-4.346,4.627l1.784,1.997l1.851-1.703
		l2.594,2.75c0,0-0.917,1.545-2.652,2.407c-0.653,0.324-1.348,0.456-2.35,0.451c-3.544-0.02-5.986-3.751-5.469-7.274
		C238.727,239.421,243.799,237.796,243.757,237.726L243.757,237.726z"/>
	<path fill-rule="evenodd" clip-rule="evenodd" fill="#82318E" d="M272.564,124.472l-3.1,0.024c0,0-0.257,4.537,0.836,7.302
		c1.465,3.707,3.978,5.598,6.659,6.048c1.454,0.247,3.17,0,4.792-0.408c1.056-0.267,1.905-0.845,3.244-1.996
		c0.197-0.168,3.528-3.033,1.562-9.845c-1.128-3.897-1.625-4.367-1.625-4.367l-9.107,1.818l1.687,6.119l2.634-0.482l-0.49-2.466
		l3.699-0.783c0,0,0.842,1.588,0.673,3.519c-0.063,0.726-0.312,1.388-0.839,2.24c-1.861,3.016-6.318,3.156-9.057,0.88
		C271.391,129.649,272.645,124.473,272.564,124.472L272.564,124.472z"/>
	<g>
		<path fill-rule="evenodd" clip-rule="evenodd" fill="#82318E" d="M288.848,174.52l0.544-4.409c0,0-4.455,0.63-6.905,1.377
			c-1.219,0.372-1.617,1.12-1.519,1.174c0.144,0.082-0.313-2.234-2.217-3.271c-1.987-1.082-5.215-0.693-6.409,3.193
			c-1.098,3.579-1.4,5.649-1.474,6.834c-0.072,1.147,0.061,1.468,0.233,1.498l15.939,2.767l0.951-4.223l-6.383-1.366
			c0,0-0.115-1.615,1.145-2.558c0.443-0.332,1.17-0.436,2.029-0.545C288.736,174.511,288.848,174.52,288.848,174.52L288.848,174.52z
			"/>
		<path fill-rule="evenodd" clip-rule="evenodd" fill="#FFFFFF" d="M273.873,177.678c0,0,0.104-3.088,1.69-3.991
			c1.584-0.903,3.604,0.954,3.08,2.941c-0.521,1.989-0.625,1.714-0.625,1.714L273.873,177.678L273.873,177.678z"/>
	</g>
	<g>
		<path fill-rule="evenodd" clip-rule="evenodd" fill="#82318E" d="M47.797,222.693l2.328,3.783c0,0,3.086-3.274,4.534-5.387
			c0.72-1.052,0.564-1.884,0.453-1.866c-0.164,0.026,1.639,1.55,3.773,1.171c2.229-0.396,4.506-2.714,3.013-6.497
			c-1.377-3.48-2.434-5.287-3.116-6.258c-0.66-0.941-0.964-1.109-1.118-1.024l-14.178,7.792l1.894,3.893l5.838-2.918
			c0,0,1.099,1.189,0.704,2.711c-0.14,0.537-0.643,1.072-1.245,1.693C47.892,222.63,47.797,222.693,47.797,222.693L47.797,222.693z"
			/>
		<path fill-rule="evenodd" clip-rule="evenodd" fill="#FFFFFF" d="M57.523,210.875c0,0,1.847,2.477,1.172,4.173
			c-0.673,1.694-3.41,1.505-4.243-0.374c-0.835-1.879-0.582-1.729-0.582-1.729L57.523,210.875L57.523,210.875z"/>
	</g>
	<path fill-rule="evenodd" clip-rule="evenodd" fill="#FFFFFF" d="M147.432,272.555c-1.732-0.073-3.423,3.335-0.735,4.544
		c1.368,0.381,2.139-0.328,2.438-1.051c0.294-0.709,0.196-1.197,0.184-1.281C149.097,273.241,148.312,272.593,147.432,272.555
		L147.432,272.555z"/>
	
		<circle fill-rule="evenodd" clip-rule="evenodd" fill="none" stroke="#82318E" stroke-width="3" cx="159.647" cy="161.104" r="95.375"/>
	<path fill-rule="evenodd" clip-rule="evenodd" fill="#82318E" d="M146.607,82.396c0,0,11.333-9.667,20.333-4s77.667,74,77.667,74
		s3.667,8.667-10,23s-56.333,59.667-56.333,59.667l-75.333-71.333l11-13l63.333,59l18.333-19.333l-63-60l11.667-11.667
		l62.667,57.667l18.334-17.333L146.607,82.396z"/>
	<path fill-rule="evenodd" clip-rule="evenodd" fill="#82318E" d="M144.607,112.062l62,59l12.333-13.333l-75-71.333l-63.667,65.333
		c0,0-8.667,12.333,1,22s72.333,69.333,72.333,69.333s10.667,8.333,21-4.333c0.21-0.258-79.667-76-79.667-76l19.667-18l62.333,58
		l11-12.667l-62.333-59L144.607,112.062z"/>
	<polygon fill-rule="evenodd" clip-rule="evenodd" fill="#82318E" points="31.531,144.328 47.781,144.703 47.656,148.828 
		36.031,148.578 35.906,156.203 31.531,156.828 	"/>
	<path fill-rule="evenodd" clip-rule="evenodd" fill="#82318E" d="M44.783,186.729l1.66,3.554c0,0,5.771-1.348,3.742-8.676
		c-2.503-9.038-12.664-5.317-14.508-3.184c-1.701,1.968-5.903,10.222,4.923,13.797c0.266,0.088,0.328-4.615,0.328-4.615
		s-1.951-1.066-2.629-2.645c-0.729-1.701-0.09-3.954,2.865-4.868C45.703,178.689,46.422,185.383,44.783,186.729z"/>
	<path fill-rule="evenodd" clip-rule="evenodd" fill="#82318E" d="M102.998,262.104l3.708,1.282c0,0,3.05-5.081-3.623-8.726
		c-8.23-4.496-12.634,5.388-12.386,8.197c0.228,2.591,3.228,11.354,13.333,6.072c0.248-0.129-3.085-3.449-3.085-3.449
		s-2.124,0.659-3.729,0.046c-1.729-0.66-2.901-2.687-1.5-5.446C97.867,255.847,103.172,259.991,102.998,262.104z"/>
	
		<ellipse transform="matrix(0.6447 0.7644 -0.7644 0.6447 199.0896 33.1438)" fill-rule="evenodd" clip-rule="evenodd" fill="#82318E" cx="63.889" cy="230.75" rx="7.177" ry="8.438"/>
	
		<ellipse transform="matrix(0.6447 0.7644 -0.7644 0.6447 199.0359 33.091)" fill-rule="evenodd" clip-rule="evenodd" fill="#FFFFFF" cx="63.918" cy="230.669" rx="3.963" ry="4.66"/>
	<circle fill-rule="evenodd" clip-rule="evenodd" fill="#82318E" cx="115.468" cy="271.14" r="3.188"/>
	<circle fill-rule="evenodd" clip-rule="evenodd" fill="#82318E" cx="195.135" cy="274.14" r="3.188"/>
	<path fill-rule="evenodd" clip-rule="evenodd" fill="#82318E" d="M164.966,276.473l-3.202-0.183v-1.852h6.558v-2.777h-10.261v7.252
		c0,0,2.872-0.635,3.626-0.541c2.468,0.309,3.085,0.689,3.085,3.008c0,2.701-3.78,3.396-4.474,1.004
		c-0.37-1.275-3.935-0.232-3.935-0.232s0.54,3.55,2.7,4.397c3.707,1.458,7.382,0.268,8.64-1.62c0.926-1.389,2.382-7.213-2.536-8.457
		"/>
	<path fill-rule="evenodd" clip-rule="evenodd" fill="#82318E" d="M175.81,275.249l-3.654,0.199c0,0,0.115-3.663,3.018-5.322
		c1.668-0.953,6.037-1.231,7.387,0.715c2.031,2.927,1.073,5.282,0.238,6.473c-0.834,1.192-3.892,4.131-3.892,4.131h5.759v3.295
		h-11.24v-2.978c0,0,5.004-4.37,5.401-5.283s2.144-3.653-0.715-3.932c-1.574-0.153-2.145,0.556-2.344,2.582"/>
</g>
</svg>
